<svg width="132" height="40" viewBox="0 0 132 40" fill="none" xmlns="http://www.w3.org/2000/svg">
<mask id="amazon" mask-type="alpha" maskUnits="userSpaceOnUse" x="0" y="0" width="132" height="40">
<g clip-path="url(#clip0)">
<path fill-rule="evenodd" clip-rule="evenodd" d="M81.8902 31.0717C74.2195 36.719 63.1012 39.732 53.5286 39.732C40.1062 39.732 28.0226 34.7734 18.8809 26.5263C18.1627 25.8778 18.8062 24.9939 19.6681 25.499C29.5338 31.2324 41.7323 34.6816 54.333 34.6816C62.8311 34.6816 72.1797 32.9254 80.7755 29.2811C82.0741 28.7301 83.16 30.1305 81.8902 31.0717Z" fill="#FF9900"/>
<path fill-rule="evenodd" clip-rule="evenodd" d="M85.0792 27.4274C84.1024 26.1762 78.5979 26.8362 76.1271 27.1289C75.3744 27.2207 75.2595 26.5665 75.9375 26.0959C80.3216 23.014 87.5154 23.9035 88.3543 24.9366C89.1932 25.9753 88.136 33.178 84.0162 36.6157C83.3842 37.1437 82.7808 36.8625 83.0624 36.1623C83.9875 33.8552 86.0617 28.6842 85.0792 27.4274Z" fill="#FF9900"/>
<path fill-rule="evenodd" clip-rule="evenodd" d="M76.2996 4.33884V1.34301C76.2996 0.889623 76.6444 0.585449 77.0581 0.585449H90.4862C90.9171 0.585449 91.2619 0.895362 91.2619 1.34301V3.9084C91.2561 4.33884 90.8941 4.90127 90.2506 5.79084L83.2923 15.7138C85.878 15.6507 88.6073 16.0352 90.9516 17.3552C91.4802 17.6536 91.6239 18.0898 91.6641 18.5202V21.7169C91.6641 22.1531 91.1814 22.6639 90.6758 22.3999C86.5445 20.2362 81.0572 20.0009 76.4892 22.4228C76.0238 22.6753 75.5354 22.1703 75.5354 21.7341V18.6981C75.5354 18.2103 75.5411 17.3781 76.0295 16.6378L84.091 5.09066H77.0753C76.6444 5.09066 76.2996 4.78649 76.2996 4.33884Z" fill="black"/>
<path fill-rule="evenodd" clip-rule="evenodd" d="M27.3158 23.0312H23.2305C22.8397 23.0025 22.5295 22.7098 22.5007 22.3367V1.39467C22.5007 0.975713 22.8512 0.642841 23.2879 0.642841H27.0974C27.4939 0.660047 27.8099 0.964231 27.8387 1.34301V4.08058H27.9134C28.9074 1.43484 30.7748 0.200928 33.2915 0.200928C35.8484 0.200928 37.4458 1.43484 38.5949 4.08058C39.5832 1.43484 41.8299 0.200928 44.2374 0.200928C45.9497 0.200928 47.8228 0.90684 48.9662 2.49084C50.2591 4.25275 49.9948 6.8124 49.9948 9.0564L49.989 22.2736C49.989 22.6926 49.6385 23.0312 49.2018 23.0312H45.1223C44.7143 23.0025 44.3868 22.6753 44.3868 22.2736V11.1741C44.3868 10.2903 44.4672 8.08648 44.2719 7.24857C43.9673 5.84249 43.0537 5.44649 41.8701 5.44649C40.8818 5.44649 39.8475 6.10649 39.4281 7.16249C39.0086 8.21849 39.0489 9.98613 39.0489 11.1741V22.2736C39.0489 22.6926 38.6984 23.0312 38.2617 23.0312H34.1821C33.7684 23.0025 33.4466 22.6753 33.4466 22.2736L33.4409 11.1741C33.4409 8.83831 33.8259 5.40057 30.9242 5.40057C27.988 5.40057 28.103 8.75222 28.103 11.1741V22.2736C28.103 22.6926 27.7525 23.0312 27.3158 23.0312" fill="black"/>
<path fill-rule="evenodd" clip-rule="evenodd" d="M102.822 0.200928C108.884 0.200928 112.165 5.40057 112.165 12.012C112.165 18.3997 108.539 23.4673 102.822 23.4673C96.8696 23.4673 93.6289 18.2677 93.6289 11.7882C93.6289 5.26857 96.9098 0.200928 102.822 0.200928ZM102.857 4.47658C99.8459 4.47658 99.6563 8.57431 99.6563 11.1282C99.6563 13.6879 99.6161 19.1515 102.822 19.1515C105.988 19.1515 106.138 14.7439 106.138 12.058C106.138 10.2903 106.063 8.17831 105.529 6.50248C105.069 5.04475 104.155 4.47658 102.857 4.47658Z" fill="black"/>
<path fill-rule="evenodd" clip-rule="evenodd" d="M120.026 23.0312H115.958C115.55 23.0025 115.222 22.6753 115.222 22.2736L115.216 1.3258C115.251 0.941274 115.59 0.642841 116.003 0.642841H119.79C120.146 0.660047 120.439 0.901102 120.52 1.22823V4.43066H120.594C121.738 1.56684 123.341 0.200928 126.162 0.200928C127.995 0.200928 129.782 0.860928 130.931 2.66875C132 4.34457 132 7.16249 132 9.18839V22.3712C131.954 22.7385 131.615 23.0312 131.213 23.0312H127.116C126.743 23.0025 126.432 22.727 126.392 22.3712V10.9962C126.392 8.70631 126.656 5.35466 123.835 5.35466C122.841 5.35466 121.927 6.0204 121.474 7.03048C120.899 8.31031 120.824 9.5844 120.824 10.9962V22.2736C120.819 22.6926 120.462 23.0312 120.026 23.0312" fill="black"/>
<path fill-rule="evenodd" clip-rule="evenodd" d="M65.595 13.0278C65.595 14.6176 65.6352 15.9433 64.8308 17.3551C64.1815 18.5029 63.1472 19.2089 62.0038 19.2089C60.4352 19.2089 59.5158 18.0151 59.5158 16.2532C59.5158 12.7753 62.6359 12.144 65.595 12.144V13.0278ZM69.7148 22.9737C69.4447 23.2148 69.054 23.232 68.7495 23.0713C67.3934 21.9464 67.1464 21.4242 66.4052 20.3509C64.1643 22.6351 62.5726 23.3181 59.671 23.3181C56.2292 23.3181 53.5574 21.2003 53.5574 16.9591C53.5574 13.6476 55.3501 11.3922 57.9127 10.2903C60.1307 9.3146 63.2277 9.14243 65.595 8.87269V8.34469C65.595 7.37478 65.6697 6.22695 65.0951 5.38904C64.6009 4.63721 63.6471 4.3273 62.8025 4.3273C61.2454 4.3273 59.8606 5.12504 59.5216 6.77791C59.4526 7.14522 59.1826 7.50678 58.8091 7.524L54.8502 7.0993C54.5169 7.02469 54.1435 6.75495 54.2411 6.24417C55.149 1.44626 59.4929 0 63.3771 0C65.3651 0 67.9623 0.528001 69.5309 2.03165C71.519 3.88539 71.3294 6.35895 71.3294 9.0506V15.4096C71.3294 17.3207 72.1223 18.1586 72.8693 19.1916C73.1278 19.5589 73.1853 20.0009 72.852 20.2763C72.0189 20.9708 70.5364 22.2621 69.7205 22.9852L69.7148 22.9737" fill="black"/>
<path fill-rule="evenodd" clip-rule="evenodd" d="M12.0376 13.0281C12.0376 14.6178 12.0778 15.9435 11.2734 17.3554C10.6241 18.5032 9.59561 19.2091 8.44643 19.2091C6.87781 19.2091 5.96422 18.0154 5.96422 16.2535C5.96422 12.7755 9.08423 12.1442 12.0376 12.1442V13.0281ZM16.1574 22.974C15.8873 23.215 15.4966 23.2322 15.1921 23.0715C13.8361 21.9467 13.5947 21.4244 12.8478 20.3512C10.6069 22.6354 9.02103 23.3183 6.11361 23.3183C2.67757 23.3183 0 21.2006 0 16.9594C0 13.6479 1.79846 11.3924 4.35537 10.2905C6.57328 9.31485 9.67031 9.14268 12.0376 8.87294V8.34494C12.0376 7.37502 12.1123 6.2272 11.5435 5.38929C11.0436 4.63746 10.0898 4.32755 9.25086 4.32755C7.69373 4.32755 6.30322 5.12528 5.96422 6.77815C5.89527 7.14546 5.62521 7.50702 5.25748 7.52424L1.29282 7.09954C0.959561 7.02494 0.591824 6.7552 0.683758 6.24442C1.59735 1.44651 5.93549 0.000244141 9.8197 0.000244141C11.8078 0.000244141 14.4049 0.528245 15.9735 2.03189C17.9616 3.88563 17.772 6.3592 17.772 9.05085V15.4098C17.772 17.3209 18.5649 18.1588 19.3119 19.1919C19.5762 19.5592 19.6337 20.0011 19.3004 20.2766C18.4672 20.971 16.9848 22.2623 16.1689 22.9854L16.1574 22.974" fill="black"/>
</g>
</mask>
<g mask="url(#amazon)">
<rect x="-3.70044" y="-4.9613" width="139.543" height="48.2743" fill="#D4D4D4"/>
</g>
<defs>
<clipPath id="clip0">
<rect width="132" height="39.732" fill="white"/>
</clipPath>
</defs>
</svg>
