<svg width="370" height="598" viewBox="0 0 370 598" fill="none" xmlns="http://www.w3.org/2000/svg">
<path d="M108.418 333.174C108.418 333.174 307.968 308.189 314.295 320.487C320.622 332.785 314.295 436.278 314.295 436.278H296.67L279.143 368.625C261.916 365.462 187.423 373.018 187.423 373.018C187.423 373.018 243.793 465.202 241.985 480.568C241.59 483.93 241.033 487.25 240.404 490.383C238.118 501.772 227.404 509.445 215.878 508.003L100.982 479.386L101.584 451.969L191.414 471.755C191.414 471.755 132.458 412.974 113.033 383.703C97.54 360.356 106.505 343.789 107.196 338.647L108.418 333.174Z" fill="#522E23"/>
<path d="M319.537 390.934H278.865C278.865 390.934 297.13 471.078 294.866 478.911C292.602 486.745 294.866 503.617 294.866 503.617C294.866 503.617 371.055 518.983 369.791 510.396C368.528 501.809 324.336 479.514 324.336 479.514L319.537 390.934Z" fill="#F2A600"/>
<path d="M144.431 497.831L163.475 461.893C163.475 461.893 85.1689 449.559 79.307 443.891C73.4452 438.223 57.4769 432.323 57.4769 432.323C57.4769 432.323 8.22542 492.448 16.4043 495.353C24.5832 498.257 64.9757 469.648 64.9757 469.648L144.431 497.831Z" fill="#F2A600"/>
<path d="M316.864 324.95C312.856 320.292 307.753 319.241 305.448 321.058C303.26 322.782 303.424 327.224 305.188 329.879C308.241 334.473 317.104 335.26 322.313 330.917C327.047 326.971 327.58 319.774 325.167 315.09C321.359 307.697 310.406 306.942 303.372 309.382C296.099 311.904 288.399 319.444 289.621 327.804C291.222 338.759 306.747 341.556 308.302 341.815C309.539 342.02 322.253 343.905 331.394 334.29C338.795 326.505 338.485 316.828 338.4 315.09" stroke="#F2A600" stroke-width="2" stroke-miterlimit="10" stroke-linecap="round"/>
<path d="M227.787 497.662C223.779 493.005 218.676 491.954 216.371 493.771C214.183 495.495 214.347 499.936 216.111 502.592C219.164 507.186 228.027 507.972 233.236 503.63C237.97 499.684 238.503 492.487 236.09 487.803C232.282 480.41 221.329 479.655 214.295 482.095C207.022 484.617 199.322 492.157 200.544 500.517C202.145 511.472 217.67 514.269 219.225 514.527C220.462 514.733 233.176 516.618 242.317 507.003C249.718 499.218 249.408 489.541 249.323 487.803" stroke="#F2A600" stroke-width="2" stroke-miterlimit="10" stroke-linecap="round"/>
<path d="M225.889 121.858C226.431 119.793 227.177 115.686 225.602 111.18C222.478 102.247 212.919 99.4578 211.064 98.9167C209.084 98.3387 203.854 97.0949 196.407 99.1077C180.886 103.302 163.442 119.559 158.414 140.671C155.581 152.562 157.917 160.831 150.83 173.442C146.038 181.97 142.161 183.187 139.96 183.391C134.165 183.929 129.59 178.419 128.715 177.327C128.953 179.472 130.265 189.135 138.773 196.317C139.851 197.226 151.486 207.309 163.274 205.471C173.606 203.86 177.367 193.438 180.516 189.405C199.428 165.185 185.894 139.066 201.533 126.548C205.322 123.515 212.333 120.073 225.889 121.858Z" fill="#522E23"/>
<path d="M233.562 125.804C230.487 129.546 220.152 130.071 214.335 128.149C208.518 126.227 204.312 129.933 206.234 124.115C208.157 118.298 220.986 115.165 226.803 117.087C232.62 119.009 237.452 121.07 233.562 125.804Z" fill="#FF5454"/>
<path d="M261.142 170.792C261.142 170.792 274.63 165.596 276.121 157.006C277.613 148.416 276.566 120.834 244.743 118.286C244.743 118.286 235.654 110.619 219.491 118.58C204.499 125.964 178 154.465 202.911 175.866L261.142 170.792Z" fill="#522E23"/>
<path d="M215.628 196.187L204.098 208.546L202.185 223.874L200.587 195.365L208.64 183.667L215.628 196.187Z" fill="#522E23"/>
<path d="M207.348 188.361C207.348 188.361 222.077 203.768 230.407 205.649C241.779 208.218 264.674 168.296 262.863 164.518C261.052 160.739 250.63 138.046 229.994 145.847C209.358 153.649 211.029 157.062 211.029 157.062C211.029 157.062 201.612 150.185 197.12 155.597C192.629 161.009 197.134 169.317 201.395 170.353C201.395 170.353 198.11 183.669 188.529 184.483C188.985 190.87 176.753 195.293 176.753 195.293C165.297 202.48 200.587 217.948 200.587 217.948L209.746 202.631L207.348 188.361Z" fill="#FFB68F"/>
<path d="M251.085 169.85C249.23 177.225 250.237 186.716 249.064 187.28C247.046 188.251 242.932 186.722 242.639 186.447" stroke="#522E23" stroke-width="1.21264" stroke-miterlimit="10" stroke-linecap="round"/>
<path d="M232.404 166.997C240.161 164.452 242.748 167.438 242.748 167.438" stroke="#522E23" stroke-width="1.91564" stroke-miterlimit="10" stroke-linecap="round"/>
<path d="M264.804 175.348C260.69 172.39 258.569 172.275 258.569 172.275" stroke="#522E23" stroke-width="1.91564" stroke-miterlimit="10" stroke-linecap="round"/>
<path d="M238.971 173.667C238.729 174.512 237.844 175.003 236.99 174.758C236.729 174.683 236.511 174.555 236.328 174.371C235.912 173.978 235.729 173.369 235.896 172.786C236.088 172.115 236.677 171.671 237.33 171.631C237.504 171.615 237.688 171.63 237.871 171.683C238.725 171.927 239.216 172.813 238.971 173.667Z" fill="#522E23"/>
<path d="M258.949 179.315C258.707 180.16 257.821 180.651 256.976 180.409C256.122 180.165 255.631 179.279 255.873 178.434C256.118 177.58 257.003 177.089 257.857 177.334C258.702 177.576 259.193 178.462 258.949 179.315Z" fill="#522E23"/>
<path d="M235.226 196.725C233.785 196.18 234.124 189.616 234.086 189.38L241.767 192.936C239.212 195.682 236.28 197.123 235.226 196.725Z" fill="white"/>
<path d="M208.547 155.17C208.547 155.17 213.878 161.847 217.957 161.224C222.037 160.602 234.219 144.831 240.996 151.85C247.773 158.869 265.507 168.539 275.305 166.701C285.103 164.863 275.302 143.543 275.302 143.543C275.302 143.543 254.223 129.173 250.427 127.322C247.786 126.034 231.3 124.543 221.511 123.755C217.463 123.429 213.906 126.405 213.499 130.446L208.547 155.17Z" fill="#522E23"/>
<path d="M295.835 257.54L297.926 262.41C298.46 263.653 298.066 265.096 296.978 265.9C293.529 268.449 286.727 274.145 288.809 278.084C290.335 280.973 289.729 283.205 288.885 284.622C288.22 285.738 286.852 286.221 285.606 285.854L284.561 285.547C283.445 285.218 282.63 284.261 282.493 283.106C282.056 279.409 281.578 271.371 285.114 268.24C289.775 264.111 290.386 263.2 290.162 260.351C290.098 259.537 290.152 258.757 290.324 258.011C290.956 255.281 294.73 254.966 295.835 257.54Z" fill="#FFB68F"/>
<path d="M214.065 212.464C214.065 212.464 193.12 276.734 189.357 296.58C185.593 316.426 194.25 322.196 183.047 337.24C174.717 348.426 175.974 337.793 154.425 341.538C130.859 345.632 111.105 341.62 106.661 337.962C102.217 334.304 105.946 244.85 134.048 216.462C162.149 188.075 167.922 195.754 180.724 182.932C193.527 170.109 214.065 212.464 214.065 212.464Z" fill="#FF5A3D"/>
<path d="M307.694 266.389L304.428 260.771C302.633 257.682 298.22 257.55 296.243 260.525L288.115 272.755L273.703 277.644L277.201 291.217L305.68 281.61L307.694 266.389Z" fill="#FFB68F"/>
<path d="M309.971 296.283C309.971 296.283 277.329 239.965 277.201 225.44" stroke="#522E23" stroke-width="1.45328" stroke-miterlimit="10" stroke-linecap="round"/>
<path d="M300.78 258.361L308.475 260.108C308.475 260.108 318.987 278.478 312.413 280.88C305.839 283.283 299.511 280.372 299.511 280.372L295.16 267.458L300.78 258.361Z" fill="#FFB68F"/>
<path d="M204.538 220.085C204.538 220.085 216.024 267.685 220.388 279.587C222.008 284.002 228.239 289.528 240.682 287.209C248.694 285.716 257.29 281.5 264.591 278.617C271.3 275.968 270.836 273.912 279.785 271.517L284.686 292.988L274.778 299.917C274.778 299.917 229.561 319.335 214.848 315.914C200.134 312.492 184.451 276.849 184.451 276.849L204.538 220.085Z" fill="#FF5A3D"/>
<path d="M288.048 254.151C287.735 255.065 288.924 255.731 289.54 254.987C294.354 249.165 303.226 237.521 299.794 234.586C296.311 231.607 290.64 246.568 288.048 254.151Z" fill="#FF5A3D"/>
<path d="M291.276 262.877C292.154 263.282 292.938 262.167 292.26 261.479C286.961 256.095 276.285 246.079 273.014 249.194C269.694 252.354 283.998 259.524 291.276 262.877Z" fill="#FF5A3D"/>
<path d="M278.978 224.184C278.978 224.184 268.326 205.551 261.012 210.956C253.697 216.361 273.488 227.891 278.978 224.184Z" fill="#FF5A3D"/>
<path d="M280.37 224.045C280.37 224.045 257.042 219.098 256.115 229.161C255.188 239.223 279.384 231.338 280.37 224.045Z" fill="#FF5A3D"/>
<path d="M279.368 224.52C279.368 224.52 262.07 237.226 268.273 243.877C274.477 250.528 283.675 229.551 279.368 224.52Z" fill="#FF5A3D"/>
<path d="M278.346 223.872C278.346 223.872 275.987 248.692 286.549 248.455C297.111 248.219 286.038 224.027 278.346 223.872Z" fill="#FF5A3D"/>
<path d="M279.659 224.094C279.659 224.094 294.254 239.831 300.154 232.909C306.054 225.988 284.166 219.241 279.659 224.094Z" fill="#FF5A3D"/>
<path d="M276.795 225.438C276.795 225.438 303.821 224.912 302.261 213.564C300.701 202.217 276.012 217.133 276.795 225.438Z" fill="#FF5A3D"/>
<path d="M279.269 227.026C279.269 227.026 291.978 203.049 281.259 198.888C270.539 194.727 271.599 223.665 279.269 227.026Z" fill="#FF5A3D"/>
<path d="M279.173 231.905C275.205 231.905 271.987 228.688 271.987 224.72C271.987 220.751 275.205 217.534 279.173 217.534C283.142 217.534 286.359 220.751 286.359 224.72C286.359 228.688 283.142 231.905 279.173 231.905Z" fill="#F2A600"/>
<path d="M169.472 419.671C168.172 434.977 182.938 434.313 187.036 438.808C191.133 443.303 200.527 453.474 201.965 451.854C203.404 450.234 205.653 433.812 202.512 428.467C199.371 423.122 182.118 415.398 182.118 415.398C182.118 415.398 170.772 404.365 169.472 419.671Z" fill="#FFB68F"/>
<path d="M143.849 250.841C143.849 250.841 172.135 209.324 189.015 217.537C205.896 225.749 179.891 275.934 177.153 296.008C174.416 316.082 191.753 390.448 186.62 396.949C181.488 403.45 182.058 405.161 182.058 405.161L182.856 416.681L169.084 421.557C169.084 421.557 166.645 413.944 166.645 408.862C152.84 402.082 139.838 343.909 140.523 335.472C141.207 327.035 137.347 290.971 139.058 287.207C140.769 283.443 143.849 250.841 143.849 250.841Z" fill="#FD4120"/>
<path d="M158.415 140.668C155.583 152.559 157.918 160.828 150.832 173.439C146.04 181.967 142.163 183.183 139.962 183.388C134.167 183.926 129.592 178.416 128.716 177.323C128.955 179.469 130.267 189.132 138.775 196.314C139.853 197.223 151.488 207.305 163.276 205.468C173.608 203.857 177.369 193.434 180.518 189.402C199.43 165.182 163.444 119.556 158.415 140.668Z" fill="#522E23"/>
</svg>
