<svg width="400" height="400" viewBox="0 0 400 650" fill="none" xmlns="http://www.w3.org/2000/svg">
<path d="M212.53 623.553L228.871 624.574L228.734 585.942H210.999L212.53 623.553Z" fill="#DCDCDC"/>
<path d="M167.821 617.412H181.976L182.516 579.292H165.977L167.821 617.412Z" fill="#DCDCDC"/>
<path d="M204.808 606.271H238.13L239.88 364.796C239.912 360.355 236.321 356.738 231.88 356.738H204.808L204.808 606.271Z" fill="#5C5C5C"/>
<path d="M158.363 608.98L188.671 608.98L198.628 356.737L166.363 356.737C161.945 356.737 158.363 360.319 158.363 364.737L158.363 608.98Z" fill="#5C5C5C"/>
<path d="M158.792 391.486L229.539 391.486L229.539 356.738L183.545 356.738C177.007 356.738 171.127 360.715 168.694 366.784L158.792 391.486Z" fill="#5C5C5C"/>
<path d="M190.921 643.489H158.088C157.03 643.489 156.173 642.631 156.173 641.574V636.171C156.173 628.662 162.26 622.575 169.769 622.575H179.24C186.749 622.575 192.836 628.662 192.836 636.171V641.574C192.836 642.631 191.979 643.489 190.921 643.489Z" fill="#0F0F23"/>
<path d="M204.729 643.489H237.562C238.619 643.489 239.477 642.631 239.477 641.574V636.171C239.477 628.662 233.39 622.575 225.881 622.575H216.41C208.901 622.575 202.814 628.662 202.814 636.171V641.574C202.814 642.631 203.671 643.489 204.729 643.489Z" fill="#0F0F23"/>
<path d="M183.364 614.836C183.364 614.836 175.994 610.02 166.868 613.505C164.538 614.395 164.434 620.118 161.558 621.558C157.732 623.473 156.824 627.51 156.503 636.914C156.181 646.317 190.09 636.914 190.09 636.914L188.53 623.915C188.079 620.153 183.364 614.836 183.364 614.836Z" fill="#0F0F23"/>
<path d="M211.076 614.836C211.076 614.836 218.446 610.02 227.572 613.505C229.902 614.395 230.006 620.118 232.882 621.558C236.708 623.473 237.616 627.51 237.937 636.914C238.259 646.317 204.35 636.914 204.35 636.914L205.91 623.915C206.361 620.153 211.076 614.836 211.076 614.836Z" fill="#0F0F23"/>
<path d="M124.779 401.969V392.147C124.779 389.596 122.711 387.528 120.159 387.528H96.619C94.0677 387.528 91.9994 389.596 91.9994 392.147V401.969" stroke="#2B2B2B" stroke-width="8.83304" stroke-miterlimit="10" stroke-linecap="round"/>
<path d="M97.0566 372.597C97.145 373.072 89.2935 391.988 95.691 395.549C98.7479 396.127 104.698 396.722 108.617 396.648C112.535 396.575 113.049 397.134 116.651 397.12C118.823 397.111 118.639 392.016 118.151 387.972C117.838 385.385 119.862 383.114 122.468 383.125L124.806 383.135C124.806 383.135 128.057 379.449 126.777 374.771C125.498 370.094 97.0566 372.597 97.0566 372.597Z" fill="#EEB489"/>
<path d="M296.507 371.929C296.418 372.404 305.213 397.589 298.816 401.151C295.759 401.729 295.121 389.374 295.121 389.374C295.121 389.374 295.794 405.504 291.875 405.43C287.956 405.357 287.808 389.488 287.808 389.488C287.808 389.488 287.443 405.917 283.841 405.902C280.239 405.887 276.821 381.984 276.821 381.984C276.821 381.984 274.712 393.494 272.585 393.918C270.458 394.341 265.506 378.781 266.786 374.104C268.066 369.426 296.507 371.929 296.507 371.929Z" fill="#EEB489"/>
<path d="M191.75 171.615C190.329 171.695 160.666 211.727 160.666 211.727L139.017 227.055L150.182 362.989H221.932L233.468 227.055C233.468 227.055 221.682 172.542 191.75 171.615Z" fill="#2B2B2B"/>
<path d="M231.07 191.444C231.07 191.444 255.156 204.053 279.733 273.587C304.309 343.121 306.173 379.662 306.173 379.662H255.267L228.781 253.206C228.781 253.206 222.231 202.124 231.07 191.444Z" fill="#6D99FF"/>
<path d="M168.956 190.293C168.956 190.293 131.494 200.375 105.241 269.293C87.0155 317.134 85.0825 375.368 85.0825 375.368H135.989L156.192 248.912C156.192 248.912 186.183 204.827 168.956 190.293Z" fill="#6D99FF"/>
<path d="M191.715 173.554C191.715 173.554 226.964 198.678 215.365 216.076C203.767 233.473 204.733 485.739 204.733 485.739H248.854L248.854 229.171C248.854 229.171 244.493 174.727 191.715 173.554Z" fill="#6D99FF"/>
<path d="M191.748 171.615C191.748 171.615 169.518 198.678 181.116 216.076C192.714 233.474 187.328 485.739 187.328 485.739H129.56L139.555 231.541C139.555 231.541 129.89 198.678 191.748 171.615Z" fill="#6D99FF"/>
<path d="M236.677 193.587C236.677 193.587 257.95 221.842 245.386 228.607C232.821 235.373 220.9 239.239 225.41 257.603C229.921 275.968 236.042 288.855 226.699 295.298C217.356 301.742 215.101 323.972 215.101 323.972" stroke="#2B2B2B" stroke-width="1.25698" stroke-miterlimit="10" stroke-linecap="round"/>
<path d="M156.217 190.018C156.217 190.018 134.943 218.273 147.508 225.039C160.073 231.804 171.994 235.67 167.483 254.035C162.973 272.399 156.851 285.286 166.194 291.729C175.537 298.173 177.793 320.403 177.793 320.403" stroke="#2B2B2B" stroke-width="1.25698" stroke-miterlimit="10" stroke-linecap="round"/>
<path d="M41.8963 481.251H170.408C172.553 481.251 174.293 479.511 174.293 477.366V404.246C174.293 402.101 172.553 400.361 170.408 400.361H41.8963C39.7508 400.361 38.0115 402.101 38.0115 404.246V477.366C38.0115 479.511 39.7508 481.251 41.8963 481.251Z" fill="#2B2B2B"/>
<path d="M170.744 407.124C170.744 407.124 122.276 442.564 106.151 442.564C90.0269 442.564 43.3111 407.124 43.3111 407.124" stroke="#6D99FF" stroke-width="2" stroke-miterlimit="10" stroke-linecap="round"/>
<path d="M183.883 171.129H203.8V191.979C203.8 197.479 199.342 201.937 193.842 201.937C188.342 201.937 183.883 197.479 183.883 191.979V171.129Z" fill="#EEB489"/>
<path d="M203.8 175.615L185.63 175.801C185.63 175.801 200.948 187.84 203.8 185.888V175.615V175.615Z" fill="#2B2B2B"/>
<path d="M195.198 177.694H205.727C217.805 177.694 227.595 167.903 227.595 155.826V127.716C227.595 115.638 217.805 105.848 205.727 105.848H191.471C179.394 105.848 169.603 115.638 169.603 127.716V152.099C169.603 166.234 181.062 177.694 195.198 177.694Z" fill="#EEB489"/>
<path d="M242.039 103.298C242.52 98.846 243.288 91.9509 238.656 88.7998C234.272 85.8183 227.419 87.3944 224.641 90.9745C224.641 90.9745 218.138 83.9833 212.82 81.2577C198.298 73.8153 172.529 76.5373 171.482 87.35C170.868 93.688 188.698 101.178 188.879 100.882C189.038 100.621 177.98 90.4506 168.34 92.9076C164.35 93.9248 160.712 97.0784 159.4 101.123C157.303 107.59 161.188 114.971 166.166 117.071C169.118 118.316 170.191 116.752 177.461 116.386C183.604 116.076 177.937 120.502 183.051 121.42C190.664 122.787 201.678 120.304 207.243 121.42C213.785 122.732 227.532 125.489 235.775 117.835C240.991 112.992 241.738 106.081 242.039 103.298Z" fill="#2B2B2B"/>
<path d="M195.333 115.94C195.333 115.94 182.006 128.941 182.701 136.318C183.397 143.695 171.607 137.866 171.607 137.866C171.607 137.866 171.454 151.363 169.72 151.232C167.985 151.102 157.691 110.421 165.774 108.915C173.858 107.409 195.333 115.94 195.333 115.94Z" fill="#2B2B2B"/>
<path d="M231.729 137.014L222.416 133.753" stroke="#2B2B2B" stroke-width="3.78559" stroke-miterlimit="10" stroke-linecap="round"/>
<path d="M193.432 138.051L203.8 135.292" stroke="#2B2B2B" stroke-width="3.78559" stroke-miterlimit="10" stroke-linecap="round"/>
<path d="M216.605 137.864C219.255 144.533 220.136 149.308 220.471 152.121C220.623 153.401 220.757 155.072 219.746 155.987C218.004 157.562 214.202 155.693 213.826 155.503" stroke="#2B2B2B" stroke-width="1.26186" stroke-miterlimit="10" stroke-linecap="round"/>
<path d="M214.878 161.533C215.63 164.472 212.406 170.52 208.344 169.87C203.829 169.148 202.779 162.208 202.453 160.936" fill="white"/>
<path d="M201.958 143.813C201.098 143.813 200.4 143.115 200.4 142.254C200.4 141.393 201.098 140.695 201.958 140.695C202.819 140.695 203.517 141.393 203.517 142.254C203.517 143.115 202.819 143.813 201.958 143.813Z" fill="#2B2B2B"/>
<path d="M226.037 143.813C225.176 143.813 224.478 143.115 224.478 142.254C224.478 141.393 225.176 140.695 226.037 140.695C226.897 140.695 227.595 141.393 227.595 142.254C227.595 143.115 226.897 143.813 226.037 143.813Z" fill="#2B2B2B"/>
<path d="M170.054 146.349C166.554 146.948 163.084 143.737 162.303 139.177C161.522 134.617 163.727 130.435 167.227 129.836C170.727 129.237 174.197 132.447 174.978 137.007C175.759 141.567 173.554 145.75 170.054 146.349Z" fill="#EEB489"/>
</svg>
