<svg width="400" height="400" viewBox="0 0 671 400" fill="none" xmlns="http://www.w3.org/2000/svg">
<g clip-path="url(#clip0)">
<path d="M135.265 339.428H111.837V478.862H135.265V339.428Z" fill="#E6E7E8"/>
<path d="M538.867 339.428H515.439V478.862H538.867V339.428Z" fill="#E6E7E8"/>
<path d="M119.051 362.634H92.7356V502.067H119.051V362.634Z" stroke="#231F20" stroke-width="0.96829" stroke-miterlimit="10" stroke-linecap="round"/>
<path d="M572.397 362.634H546.082V502.067H572.397V362.634Z" stroke="#231F20" stroke-width="0.96829" stroke-miterlimit="10" stroke-linecap="round"/>
<path d="M201.228 95.6377L231.26 287.481L256.869 287.109C256.869 287.109 222.289 99.3626 201.228 95.6377Z" fill="#E6E7E8"/>
<path d="M231.26 287.48C231.26 287.48 220.73 107.942 201.228 95.6369C201.228 95.6369 268.971 90.2448 279.204 95.8979C289.437 101.551 315.699 287.219 315.699 287.219C315.699 287.219 251.055 293.981 231.26 287.48Z" fill="#0095FF"/>
<path d="M319.219 348.326H298.542V466.637H319.219V348.326Z" fill="#E6E7E8"/>
<path d="M255.754 481.514C255.754 462.672 279.539 447.397 308.88 447.397C338.221 447.397 362.007 462.672 362.007 481.514" fill="#E6E7E8"/>
<path d="M490.715 465.711H456.66L419.739 327.639C419.739 327.639 325.812 333.033 314.409 329.199C303.005 325.366 323.447 312.181 323.447 312.181L410.844 281.16C420.269 277.977 433.541 278.381 442.524 282.656L443.691 283.89C446.922 287.312 448.834 291.77 449.085 296.47L490.715 465.711Z" fill="#0095FF"/>
<path d="M466.032 485.273L481.26 485.158L477.051 459.008L460.812 463.845L466.032 485.273Z" fill="#77562F"/>
<path d="M479.831 475.519C479.831 475.519 508.781 486.406 526.205 489.66C530.901 490.538 529.634 500.094 529.634 500.094L463.898 499.568C462.824 499.569 461.916 498.785 461.769 497.722C461.243 493.927 460.336 483.63 463.197 480.012C463.772 479.284 465.184 479.884 466.49 480.297C467.939 480.755 470.532 487.938 479.147 480.55C479.955 479.858 478.894 476.481 479.831 475.519Z" fill="#161F40"/>
<path d="M452.873 476.742L496.558 470.132L492.921 451.54L450.933 463.921L452.873 476.742Z" fill="#0095FF"/>
<path d="M435.775 468.206H401.719L364.798 330.135L388.75 286.386C391.982 289.808 393.894 294.266 394.145 298.966L435.775 468.206Z" fill="#0095FF"/>
<path d="M411.091 487.769L426.318 487.654L422.109 461.504L405.871 466.341L411.091 487.769Z" fill="#77562F"/>
<path d="M424.89 478.014C424.89 478.014 453.84 488.901 471.264 492.156C475.96 493.033 474.693 502.59 474.693 502.59L408.957 502.064C407.884 502.064 406.975 501.281 406.828 500.218C406.302 496.422 405.395 486.125 408.256 482.507C408.831 481.78 410.243 482.38 411.549 482.792C412.998 483.25 415.591 490.434 424.206 483.045C425.014 482.353 423.953 478.976 424.89 478.014Z" fill="#161F40"/>
<path d="M397.933 479.238L441.618 472.628L437.981 454.036L395.993 466.417L397.933 479.238Z" fill="#0095FF"/>
<path d="M357.372 123.212C352.901 119.782 326.326 107.1 306.753 108.594C289.303 109.926 267.723 119.314 255.578 134.676C246.934 145.609 257.343 143.439 259.513 157.652L267.074 250.372L365.717 252.547L370.166 169.083C366.772 148.025 372.205 134.591 357.372 123.212Z" fill="#161F40"/>
<path d="M540.443 244.795L583.459 281.944H81.6707L124.687 244.795H540.443Z" fill="#F4F1EC"/>
<path d="M583.459 281.944H81.6707V390.828H583.459V281.944Z" fill="#D9D7D4"/>
<path d="M438.977 255.381C438.459 255.381 437.936 255.354 437.408 255.299C436.974 255.254 426.645 254.176 415.988 252.602C397.58 249.884 381.25 243.286 375.729 237.075L351.254 163.465C347.612 156.019 364.491 131.014 364.491 131.014C364.491 131.014 374.033 147.132 377.675 154.578L407.585 220.686C414.549 222.227 428.768 224.222 440.511 225.443C448.755 226.301 446.568 255.381 438.977 255.381Z" fill="#161F40"/>
<path d="M445.55 234.293C445.55 234.293 446.352 248.432 442.458 252.326C442.458 252.326 446.216 254.163 450.451 255.419C454.687 256.674 488.508 259.716 488.508 259.716C488.508 259.716 489.806 247.483 478.496 245.072C467.185 242.662 454.632 233.19 445.55 234.293Z" fill="#77562F"/>
<path d="M147.347 222.962C141.921 216.319 133.978 216.011 131.062 219.105C128.294 222.042 130.697 228.751 131.49 230.89C134.663 239.443 141.753 244.096 145.418 246.104" fill="#0095FF"/>
<path d="M159.074 265.29C177.535 265.29 192.501 262.795 192.501 259.716C192.501 256.638 177.535 254.142 159.074 254.142C140.613 254.142 125.647 256.638 125.647 259.716C125.647 262.795 140.613 265.29 159.074 265.29Z" fill="#161F40"/>
<path d="M159.074 263.369C177.535 263.369 192.501 260.873 192.501 257.795C192.501 254.716 177.535 252.221 159.074 252.221C140.613 252.221 125.647 254.716 125.647 257.795C125.647 260.873 140.613 263.369 159.074 263.369Z" fill="#D9D7D4"/>
<path d="M142.145 255.893C142.229 256.044 142.397 256.161 142.414 256.33C142.834 260.588 174.618 260.039 175.598 256.313C179.608 241.07 177.124 210.06 174.448 209.214C170.546 209.944 164.302 210.414 157.269 210.414C151.981 210.414 147.139 210.146 143.404 209.701L142.314 214.18C139.685 228.469 139.477 242.396 142.145 255.893Z" fill="#0095FF"/>
<path d="M524.461 271.934H446.097L445.763 263.921H512.235L524.461 271.934Z" fill="#0095FF"/>
<path d="M270.554 37.156C270.554 37.156 280.528 53.11 279.806 60.7686C279.084 68.4272 286.392 64.9097 286.392 64.9097C286.142 61.966 289.113 57.489 291.48 57.9827C293.248 58.3513 299.25 38.0243 290.858 36.4614C282.467 34.8983 270.554 37.156 270.554 37.156Z" fill="#231F20"/>
<path d="M317.196 127.167H313.49C308.803 127.167 305.004 123.367 305.004 118.681V98.332C305.004 96.1884 306.742 94.4507 308.885 94.4507H321.8C323.944 94.4507 325.682 96.1884 325.682 98.332V118.681C325.682 123.368 321.882 127.167 317.196 127.167Z" fill="#77562F"/>
<path d="M305.004 99.1069L323.868 99.3006C323.868 99.3006 307.965 111.799 305.004 109.773V99.1069V99.1069Z" fill="#231F20"/>
<path d="M313.934 101.266H303.003C290.465 101.266 283.428 91.1013 283.428 78.5632V49.3805C283.428 36.8424 290.465 26.6782 303.003 26.6782H317.804C330.342 26.6782 340.506 36.8424 340.506 49.3805V74.6939C340.506 89.369 328.61 101.266 313.934 101.266Z" fill="#77562F"/>
<path d="M345.144 75.3452C349.393 75.3452 352.837 71.4518 352.837 66.6489C352.837 61.8461 349.393 57.9526 345.144 57.9526C340.895 57.9526 337.451 61.8461 337.451 66.6489C337.451 71.4518 340.895 75.3452 345.144 75.3452Z" fill="#77562F"/>
<path d="M283.302 71.4869C287.55 71.4869 290.995 67.5934 290.995 62.7905C290.995 57.9877 287.55 54.0942 283.302 54.0942C279.053 54.0942 275.609 57.9877 275.609 62.7905C275.609 67.5934 279.053 71.4869 283.302 71.4869Z" fill="#77562F"/>
<path d="M265.306 24.0311C264.807 19.4094 264.009 12.2512 268.818 8.97987C273.369 5.88452 280.484 7.52076 283.368 11.2376C285.941 14.5535 284.892 19.1973 285.626 19.2649C286.769 19.3703 286.083 7.78431 292.649 2.95937C296.763 -0.062835 303.604 -0.346213 306.446 2.70852C311.175 7.79075 307.244 13.0792 308.314 13.5042C309.51 13.98 310.775 3.48855 321.999 0.450829C329.079 -1.46504 338.129 3.07564 338.555 7.47474C339.194 14.0545 320.682 21.8302 320.494 21.5226C320.329 21.2525 331.81 10.6937 341.817 13.2444C345.96 14.3004 349.737 17.5744 351.099 21.7734C353.275 28.4873 349.242 36.1494 344.075 38.3299C341.01 39.6228 339.897 37.999 332.349 37.6183C325.971 37.2967 321.102 38.1706 315.792 39.1235C307.888 40.542 307.207 41.6865 301.429 42.8452C294.639 44.2071 280.366 47.0694 271.809 39.1235C266.394 34.0949 265.619 26.9208 265.306 24.0311Z" fill="#231F20"/>
<path d="M324.84 37.156C324.84 37.156 334.813 53.11 334.092 60.7686C333.37 68.4272 340.677 64.9097 340.677 64.9097C340.428 61.966 343.399 57.489 345.766 57.9827C347.534 58.3513 353.535 38.0243 345.144 36.4614C336.752 34.8983 324.84 37.156 324.84 37.156Z" fill="#231F20"/>
<path d="M284.367 58.0687C284.367 58.0687 286.165 55.9365 290.805 55.6815C296.623 55.3619 298.749 56.5636 298.749 56.5636" stroke="#231F20" stroke-width="3.93005" stroke-miterlimit="10" stroke-linecap="round"/>
<path d="M327.697 58.0687C327.697 58.0687 325.9 55.9365 321.259 55.6815C315.441 55.3619 313.315 56.5636 313.315 56.5636" stroke="#231F20" stroke-width="3.93005" stroke-miterlimit="10" stroke-linecap="round"/>
<path d="M304.217 57.832C301.466 64.7551 300.551 69.7123 300.204 72.6324C300.045 73.9621 299.906 75.696 300.956 76.6461C302.764 78.2817 306.712 76.3414 307.102 76.1443" stroke="#231F20" stroke-width="1.31002" stroke-miterlimit="10" stroke-linecap="round"/>
<path d="M304.996 85.726C305.184 85.9298 306.468 90.4158 311.158 89.9169C313.488 89.6691 315.349 87.6219 314.713 83.8301L304.996 85.726Z" fill="white"/>
<path d="M291.556 65.3578C292.573 65.3578 293.396 64.534 293.396 63.5178C293.396 62.5016 292.573 61.6777 291.556 61.6777C290.54 61.6777 289.716 62.5016 289.716 63.5178C289.716 64.534 290.54 65.3578 291.556 65.3578Z" fill="#231F20"/>
<path d="M318.934 65.3578C319.95 65.3578 320.774 64.534 320.774 63.5178C320.774 62.5016 319.95 61.6777 318.934 61.6777C317.918 61.6777 317.094 62.5016 317.094 63.5178C317.094 64.534 317.918 65.3578 318.934 65.3578Z" fill="#231F20"/>
<path d="M331.813 119.758C331.813 119.758 327.838 130.915 310.575 128.042C304.862 127.091 301.206 125.38 298.87 123.517" stroke="#0095FF" stroke-width="3.8553" stroke-miterlimit="10" stroke-linecap="round"/>
<path d="M556.099 231.546H360.567L388.333 106.622H583.865L556.099 231.546Z" fill="#D9D7D4"/>
<path d="M494.075 264.08H470.881L461.838 192.369H485.032L494.075 264.08Z" fill="#0095FF"/>
<path d="M461.839 192.369L454.535 231.546L466.766 231.44L461.839 192.369Z" fill="#161F40"/>
<path d="M431.477 260.005H281.028V263.316H431.477V260.005Z" fill="#161F40"/>
<path d="M418.579 248.867L431.477 260.005H281.028L293.925 248.867H418.579Z" fill="#D9D7D4"/>
<path d="M270.98 242.85L286.966 244.979L308.288 239.039L319.151 241.777C319.151 241.777 321.865 247.617 320.109 250.228L318.454 250.166C318.454 250.166 320.046 255.326 317.98 256.014C315.914 256.701 316.359 258.1 316.359 258.1C316.359 258.1 317.4 260.944 311.971 262.908C311.971 262.908 313.12 268.401 309.824 267.895C306.527 267.389 291.083 267.83 284.076 264.252L270.245 262.458C270.245 262.458 270.427 247.419 270.98 242.85Z" fill="#77562F"/>
<path d="M282.834 266.742C280.431 266.742 207.828 260.171 209.965 251.043C215.855 225.887 252.837 138.913 252.837 138.913C256.702 131.582 263.758 133.526 271.093 137.396C278.425 141.262 281.234 150.34 277.367 157.672L247.489 235.12L285.059 244.121C285.059 244.121 283.589 259.531 282.834 266.742Z" fill="#161F40"/>
<path d="M155.825 334.259H605.434" stroke="#939598" stroke-width="0.96829" stroke-miterlimit="10" stroke-linecap="round"/>
<path d="M65.3403 281.944H546.08" stroke="#939598" stroke-width="0.96829" stroke-miterlimit="10" stroke-linecap="round"/>
<path d="M81.6707 390.828H583.459" stroke="#939598" stroke-width="0.96829" stroke-miterlimit="10" stroke-linecap="round"/>
</g>
<defs>
<clipPath id="clip0">
<rect width="541.061" height="502.59" fill="white" transform="translate(64.856)"/>
</clipPath>
</defs>
</svg>
