<svg width="444" height="333" viewBox="0 0 444 333" fill="none" xmlns="http://www.w3.org/2000/svg">
<path opacity="0.05" d="M22.9371 129.168C25.2351 134.891 28.5738 140.788 29.3542 145.297C31.5222 157.611 31.739 171.139 28.4871 183.41C27.2296 188.136 24.8015 192.212 24.8449 197.242C24.9316 205.437 29.3109 216.06 32.9531 223.171C35.6847 228.547 41.3214 242.812 46.7414 245.631C54.8062 249.793 394.961 278.497 390.018 245.978C387.633 230.325 403.069 182.37 396.001 169.015C393.616 164.505 391.102 158.348 394.961 153.882C398.733 149.503 407.361 150.457 412.001 147.162C421.15 140.701 422.407 128.604 415.86 120.322C410.353 113.385 402.202 115.206 394.527 114.686C373.975 113.298 360.577 85.1578 352.425 69.0281C351.211 66.6433 347.655 56.2805 344.707 55.4133C341.715 54.5461 342.452 57.2777 340.284 57.7547C332.74 59.359 330.312 58.275 323.764 52.5082C312.838 42.8824 297.575 33.6469 282.573 32.6062C252.005 30.4816 226.943 48.0855 199.323 57.4512C183.063 62.9578 166.457 62.6976 149.633 61.7871C144.343 61.4836 130.989 62.8277 127.65 58.6219C114.382 76.6594 91.1847 74.9683 71.4562 75.4453C64.5187 75.6187 54.9363 74.4047 48.7792 77.7433C43.923 80.3449 40.3242 87.1957 37.0289 91.5316C31.0886 99.293 24.1945 107.965 21.1593 117.157C20.032 120.539 21.1593 124.788 22.9371 129.168Z" fill="#353535"/>
<path d="M371.503 294.107C386.982 296.361 365.129 294.323 350.604 294.931C341.282 295.321 332.046 293.803 322.724 293.89C320.903 293.89 314.312 295.364 312.925 293.109C317.911 291.418 323.938 291.158 329.228 290.811C340.024 290.074 345.314 292.199 356.067 291.418C357.975 291.288 370.809 289.727 372.067 291.809C372.804 292.936 372.11 293.89 371.503 294.107Z" fill="#353535"/>
<path opacity="0.11" d="M148.462 304.556C150.067 303.039 151.194 303.819 153.015 303.906C158.609 304.209 164.159 304.209 169.752 304.209C182.283 304.253 194.597 301.348 207.128 300.827C219.225 300.307 231.235 299.787 243.376 299.83C251.094 299.83 260.633 300.827 268.048 298.573C267.701 296.318 264.622 296.231 263.538 295.711C268.525 295.711 273.381 295.841 278.28 294.67C282.4 293.673 281.879 293.326 278.974 291.679C273.381 288.513 266.964 287.863 260.373 287.559C247.712 286.996 235.051 288.166 222.39 287.429C210.38 286.736 197.719 286.519 185.752 287.213C185.535 288.687 186.445 289.901 187.833 290.248C181.762 290.378 175.822 291.765 169.925 293.109C164.202 294.41 157.394 294.323 152.191 296.795C146.685 299.396 140.398 301.174 134.067 301.738C133.937 302.085 133.85 302.302 133.677 302.648C136.885 306.421 147.378 303.646 148.462 304.556Z" fill="#353535"/>
<path d="M179.031 191.909C176.516 192.125 171.876 192.125 168.798 192.125L171.53 182.846C171.53 182.846 171.833 182.803 172.44 182.673C173.177 182.5 174.391 182.196 175.996 181.676L176.256 181.416C176.559 178.641 179.421 176.039 181.806 174.955L185.101 173.264C184.537 176.603 185.275 177.513 187.269 178.684L189.264 179.204L179.031 191.909Z" fill="#B0B0B0"/>
<path d="M172.44 182.63V192.125H169.492L172.44 182.63Z" fill="#353535"/>
<path d="M200.884 115.336C200.147 115.336 199.453 115.379 198.846 115.596C198.803 137.232 201.188 158.218 205.307 178.38C210.337 203.095 220.526 284.481 218.878 296.361C220.179 296.231 221.393 296.188 222.564 296.188C223.735 296.188 224.949 296.275 226.163 296.361C224.645 289.164 224.819 278.367 223.865 270.953C222.304 258.422 220.006 246.021 218.575 233.447C216.494 214.932 209.426 152.105 207.518 139.227C206.391 131.639 204.049 123.314 204.483 115.596C203.356 115.509 202.055 115.336 200.884 115.336Z" fill="#E7E7E7"/>
<path d="M202.879 120.192H204.483L204.396 118.198L202.141 118.588L202.879 120.192Z" fill="#353535"/>
<path opacity="0.53" d="M287.039 59.9227C289.684 60.5731 292.069 63.9985 293.846 65.8195C297.229 69.3317 299.527 74.2313 301.044 78.7406C303.255 85.3746 303.342 94.3934 300.437 100.637C298.529 104.756 295.407 108.919 291.375 110.696" fill="#353535"/>
<path d="M239.994 250.487C248.146 250.574 256.297 250.791 264.319 251.181C286.996 252.308 307.852 252.482 330.355 250.704C343.146 249.707 357.411 249.663 370.332 250.4C382.733 251.094 393.183 255.3 405.757 255.343C411.48 255.343 417.03 254.173 422.667 254.693" stroke="#B0B0B0" stroke-width="3" stroke-miterlimit="10" stroke-linecap="round"/>
<path d="M17.5605 253.566C30.3082 250.791 42.9258 246.238 56.1504 246.238C63.3047 246.238 70.5457 248.363 77.5699 249.36C88.8434 250.964 100.247 251.571 111.607 251.875C138.62 252.655 165.286 248.059 192.342 247.972C197.155 247.972 202.011 247.886 206.911 247.755" stroke="#B0B0B0" stroke-width="3" stroke-miterlimit="10" stroke-linecap="round"/>
<path d="M181.459 233.924L216.363 230.759" stroke="#353535" stroke-width="3.5865" stroke-miterlimit="10" stroke-linecap="round"/>
<path d="M110.697 289.727C110.697 290.378 110.176 292.069 110.436 292.893C110.74 293.847 112.041 293.847 112.821 293.933C114.599 294.107 116.42 294.107 118.198 294.107C120.669 294.107 123.141 294.54 125.612 294.627C128.734 294.757 132.029 294.627 135.151 294.41C136.929 294.28 138.663 293.933 140.354 293.456C142.305 292.893 144.647 292.676 144.82 290.291C144.864 289.467 144.69 288.687 143.693 288.643C142.696 288.6 142.999 289.771 142.219 289.857" fill="#F99E26"/>
<path d="M203.009 116.29C202.878 136.452 197.675 155.14 193.686 174.218C193.383 175.605 193.123 176.95 192.819 178.337C192.472 179.941 192.169 181.502 191.865 183.107C191.562 184.711 191.258 186.359 190.955 188.006C190.434 190.955 189.957 193.903 189.524 196.895C186.705 215.8 185.318 235.138 183.497 254.043C182.369 265.966 176.733 284.307 178.25 296.188C175.649 295.928 173.437 295.928 170.966 296.144C172.57 288.947 172.484 278.194 173.481 270.736C175.172 258.205 177.557 245.848 179.074 233.273C180.548 221.263 181.329 209.209 182.413 197.155C182.673 194.293 182.933 191.475 183.237 188.613C183.41 186.879 183.627 185.101 183.8 183.367C184.017 181.459 184.277 179.551 184.494 177.687C184.624 176.776 184.754 175.866 184.884 174.998C186.619 162.988 189.047 151.151 190.955 139.184C192.169 131.596 196.505 121.406 196.158 113.688C197.935 113.515 201.448 115.769 203.009 116.29Z" fill="#FFBD55"/>
<path d="M190.955 188.006C190.434 190.955 189.957 193.903 189.524 196.895C187.442 197.328 184.754 197.675 182.369 197.198C182.63 194.337 182.89 191.518 183.193 188.657L190.955 188.006Z" fill="#353535"/>
<path d="M170.142 118.588C173.438 121.796 176.776 121.71 179.681 118.328C180.332 117.547 180.982 116.68 181.589 115.77" stroke="#353535" stroke-width="3.5865" stroke-miterlimit="10" stroke-linecap="round"/>
<path d="M119.021 271.907C119.541 271.039 119.325 273.034 119.325 273.858C119.281 275.549 118.891 277.283 118.631 278.931C118.371 280.578 118.154 282.139 118.024 283.744C110.739 288.687 113.038 275.722 113.818 272.123" stroke="#353535" stroke-width="3.5865" stroke-miterlimit="10" stroke-linecap="round"/>
<path d="M140.137 291.895C138.403 291.895 136.452 291.895 134.414 291.852C133.677 291.982 132.896 291.982 132.116 291.982C130.858 291.982 129.688 292.112 128.474 292.372C127.173 292.632 125.872 292.546 124.571 292.546C122.23 292.546 119.888 292.459 117.547 292.286C115.986 292.156 114.208 292.156 112.691 291.549C112.387 291.418 112.127 291.288 111.824 291.115C111.65 290.985 111.433 290.855 111.26 290.725C110.393 289.988 109.959 288.166 109.872 287.082C109.786 285.825 109.179 281.056 109.092 279.755C109.005 278.844 111.997 279.755 112.257 279.928C113.558 280.925 114.252 281.706 116.073 281.489C117.374 281.316 118.458 280.665 119.368 279.885C119.888 279.451 120.626 279.408 121.189 279.798C122.75 280.925 125.352 281.619 126.002 282.313C130.511 284.828 135.671 285.998 140.658 287.516C144.994 288.86 145.254 291.852 140.137 291.895Z" fill="#353535"/>
<path d="M112.647 291.505C112.604 291.505 112.604 291.505 112.561 291.505C112.127 291.418 111.91 291.288 111.78 291.115C112.084 291.288 112.387 291.418 112.647 291.505Z" fill="#353535"/>
<path d="M119.672 181.372C120.452 180.201 123.314 179.204 124.961 180.332C127.346 181.979 126.566 186.315 126.566 188.7C126.522 197.632 126.653 206.434 126.826 215.323C126.956 222.607 129.037 229.544 129.428 236.829C129.818 243.766 130.035 250.661 131.379 257.511C132.593 263.842 131.292 270.129 132.289 276.329C128.213 277.717 122.36 275.809 118.067 275.549C113.081 275.289 107.748 276.85 103.108 276.199C100.29 262.237 98.1654 246.758 98.2088 232.536C98.2521 223.821 98.599 215.106 98.6857 206.391C98.7725 200.58 100.68 195.507 101.071 189.784C101.201 187.746 99.9432 182.109 101.547 180.592C102.545 179.681 107.791 180.505 109.222 180.548C112.301 180.722 116.246 181.025 119.672 181.372Z" fill="#F99E26"/>
<path d="M94.9568 281.706C95.4771 280.839 95.2603 282.833 95.2603 283.657C95.217 285.348 94.8267 287.082 94.5666 288.73C94.3064 290.378 94.0896 291.939 93.9595 293.543C86.6752 298.486 88.9732 285.521 89.7537 281.923" stroke="#353535" stroke-width="3.5865" stroke-miterlimit="10" stroke-linecap="round"/>
<path d="M116.03 301.694C114.295 301.694 112.344 301.694 110.306 301.651C109.569 301.781 108.789 301.781 108.008 301.781C106.751 301.781 105.58 301.911 104.366 302.171C103.065 302.432 101.764 302.345 100.464 302.345C98.1222 302.345 95.7808 302.258 93.4394 302.085C91.8784 301.955 90.1007 301.955 88.5831 301.348C88.2796 301.218 88.0194 301.087 87.7159 300.914C87.5425 300.784 87.3257 300.654 87.1522 300.524C86.2851 299.787 85.8515 297.966 85.7647 296.882C85.678 295.624 85.071 290.855 84.9843 289.554C84.8976 288.643 87.8894 289.554 88.1495 289.727C89.4503 290.725 90.144 291.505 91.9651 291.288C93.2659 291.115 94.3499 290.464 95.2604 289.684C95.7808 289.25 96.5179 289.207 97.0815 289.597C98.6425 290.725 101.244 291.418 101.894 292.112C106.404 294.627 111.564 295.798 116.55 297.315C120.929 298.659 121.189 301.651 116.03 301.694Z" fill="#353535"/>
<path d="M88.583 301.348C88.5396 301.348 88.5396 301.348 88.4963 301.348C88.0627 301.261 87.8459 301.131 87.7158 300.957C87.976 301.087 88.2795 301.218 88.583 301.348Z" fill="#353535"/>
<path d="M76.4425 183.93C76.4425 193.513 76.0957 204.439 79.4777 213.458C81.4722 218.748 85.7648 225.382 85.1144 231.236C84.6808 235.051 82.9031 239.387 82.0793 243.376C80.8652 248.97 78.8273 254.997 78.4371 260.893C77.9601 268.351 78.0035 276.069 77.9601 283.484C77.9601 283.961 77.5265 283.484 77.1363 283.874C80.1281 286.996 90.2742 284.264 94.6101 283.874C98.0355 283.57 102.545 283.397 104.583 285.522C106.621 283.614 106.751 277.327 107.618 274.465C109.396 268.611 108.702 262.454 108.962 256.427C109.309 246.932 113.168 237.523 113.341 228.461C113.428 224.558 111.564 219.702 111.087 215.713C110.696 212.504 110.61 206.694 108.832 204.136C108.572 198.976 109.526 193.383 109.179 188.396C108.875 183.974 105.927 183.93 102.025 182.803C96.7781 181.286 91.3148 181.979 85.8082 181.676C83.1632 181.502 78.0468 181.502 76.4425 183.93Z" fill="#FFBD55"/>
<path d="M116.116 127.954C103.672 127.91 89.9273 129.211 81.5155 139.314C78.0034 143.476 77.6132 150.37 75.9655 155.443C75.2284 157.698 74.1444 184.147 78.0034 183.454C80.1714 183.063 99.1628 183.93 100.984 183.193L124.701 183.28C126.523 184.061 138.49 137.839 127.173 132.42C119.412 128.691 116.116 127.954 116.116 127.954Z" fill="#353535"/>
<path d="M115.032 121.493L114.035 130.902C113.818 132.94 111.997 134.414 109.959 134.197C107.921 133.981 106.447 132.159 106.664 130.122L107.661 120.713C107.878 118.675 109.699 117.2 111.737 117.417C112.734 117.504 113.645 118.024 114.252 118.761C114.815 119.499 115.162 120.452 115.032 121.493Z" fill="#B0B0B0"/>
<path d="M115.032 121.493L114.512 126.263C111.867 125.699 109.613 123.227 107.531 121.666L107.618 120.713C107.835 118.675 109.656 117.2 111.694 117.417C112.691 117.504 113.602 118.024 114.209 118.761C114.816 119.499 115.163 120.452 115.032 121.493Z" fill="#353535"/>
<path d="M136.018 115.466C136.018 115.813 136.018 116.16 135.975 116.55C135.888 117.374 135.715 118.198 135.411 118.935C134.934 120.192 134.197 121.276 133.33 122.187C131.596 123.921 129.211 125.005 126.609 125.005C126.306 125.005 125.959 125.005 125.655 124.962L116.94 124.051C116.203 123.964 115.509 123.878 114.816 123.704C112.171 123.141 109.786 122.013 107.705 120.452C105.016 118.458 102.892 115.77 101.591 112.691C100.941 111.173 100.507 109.526 100.247 107.878C100.16 107.098 100.073 106.274 100.073 105.45C100.073 104.756 100.117 104.063 100.16 103.369L104.149 103.802L127.607 106.274C130.728 106.621 133.33 108.442 134.761 110.957C135.585 112.214 136.018 113.818 136.018 115.466Z" fill="#B0B0B0"/>
<path d="M103.455 111.694C101.374 113.385 98.2955 113.038 96.6479 110.957C94.9569 108.875 95.3038 105.797 97.385 104.149" stroke="#353535" stroke-width="3.5865" stroke-miterlimit="10" stroke-linecap="round"/>
<path d="M121.753 121.059C121.97 122.057 124.051 122.62 124.701 121.927" stroke="#353535" stroke-width="3.5865" stroke-miterlimit="10" stroke-linecap="round"/>
<path d="M115.943 110.87C116.246 110.61 116.593 110.48 116.94 110.35C117.287 110.263 117.634 110.22 117.981 110.176C118.328 110.176 118.675 110.176 119.021 110.22C119.368 110.263 119.715 110.35 120.105 110.48H120.149C120.626 110.653 120.843 111.13 120.669 111.607C120.496 112.084 120.019 112.301 119.542 112.127C119.498 112.127 119.412 112.084 119.368 112.041C118.978 111.78 118.458 111.607 117.937 111.52C117.417 111.434 116.853 111.434 116.463 111.65H116.42C116.16 111.78 115.9 111.65 115.769 111.434C115.726 111.217 115.769 111 115.943 110.87Z" fill="#353535"/>
<path d="M130.208 113.385C130.121 113.255 129.991 113.125 129.775 112.995C129.558 112.864 129.341 112.778 129.081 112.691C128.56 112.518 127.997 112.474 127.476 112.518H127.433C127.173 112.518 126.956 112.344 126.956 112.084C126.956 111.867 127.086 111.694 127.26 111.607C127.91 111.39 128.604 111.347 129.298 111.39C129.644 111.434 129.991 111.477 130.382 111.607C130.728 111.737 131.119 111.911 131.466 112.214L131.552 112.301C131.899 112.648 131.943 113.211 131.596 113.558C131.249 113.905 130.685 113.948 130.338 113.602C130.338 113.558 130.251 113.471 130.208 113.385Z" fill="#353535"/>
<path d="M116.507 113.255C116.68 112.604 117.331 112.257 117.981 112.431C118.284 112.518 118.501 112.691 118.675 112.951" stroke="#353535" stroke-width="3.5865" stroke-miterlimit="10" stroke-linecap="round"/>
<path d="M127.563 114.469C127.78 114.209 128.084 114.035 128.474 114.035C129.124 114.035 129.688 114.555 129.688 115.206" stroke="#353535" stroke-width="3.5865" stroke-miterlimit="10" stroke-linecap="round"/>
<path d="M124.182 118.198C124.312 118.501 125.135 118.545 125.396 118.198C125.612 117.894 125.396 117.07 125.265 117.2" stroke="#353535" stroke-width="3.5865" stroke-miterlimit="10" stroke-linecap="round"/>
<path d="M145.254 107.271C144.82 107.011 144.17 107.184 144.126 107.575C144.126 108.919 143.216 110.133 141.568 110.87C138.837 112.041 135.064 111.39 132.81 109.959C131.552 109.179 130.989 108.225 130.685 107.488C130.555 107.098 129.818 106.968 129.471 107.228C128.214 108.225 126.306 108.572 124.918 108.138C123.704 107.791 122.88 106.794 122.62 105.754C121.84 106.361 120.235 107.401 117.59 107.835C112.604 108.615 106.1 106.751 103.932 103.455C103.672 103.065 101.808 100.117 104.496 97.9488C106.924 95.9976 111.087 96.3445 111.477 96.3879C111.477 94.6535 112.778 93.1793 114.902 92.659C116.29 92.3121 118.848 92.182 120.409 93.2226C121.233 93.7863 121.449 94.4367 121.493 94.8269C123.01 93.9164 127.693 91.4449 134.457 91.7918C140.528 92.0953 148.419 94.6535 148.983 97.732C149.156 98.7293 148.549 99.6398 147.682 100.377C151.194 100.984 153.665 102.848 153.796 104.756C153.882 106.057 152.885 107.705 150.413 108.138C148.722 108.485 146.771 108.138 145.254 107.271Z" stroke="#353535" stroke-width="3.5865" stroke-miterlimit="10" stroke-linecap="round"/>
<path d="M98.5995 108.182C99.4667 108.268 99.6401 108.572 99.9003 109.439" stroke="#353535" stroke-width="3.2234" stroke-miterlimit="10" stroke-linecap="round"/>
<path d="M99.6398 108.355C99.8999 108.008 100.247 107.705 100.68 107.618" stroke="#353535" stroke-width="3.2234" stroke-miterlimit="10" stroke-linecap="round"/>
<path d="M99.8566 105.32C100.767 105.667 101.721 105.797 102.632 105.623C103.325 105.493 103.889 105.233 104.366 104.93" stroke="#353535" stroke-width="3.5865" stroke-miterlimit="10" stroke-linecap="round"/>
<path d="M107.922 94.6535C107.315 93.9164 106.404 93.1359 105.19 92.659C100.854 90.8812 96.7348 94.2632 96.4747 94.48C95.7376 95.0871 93.3961 97.0816 93.6563 99.8566C93.6997 100.42 93.8731 100.984 94.1333 101.548" stroke="#353535" stroke-width="3.5865" stroke-miterlimit="10" stroke-linecap="round"/>
<path d="M150.197 92.2688C150.804 91.9652 151.715 91.6617 152.365 91.2715" stroke="#353535" stroke-width="3.5865" stroke-miterlimit="10" stroke-linecap="round"/>
<path d="M153.016 97.125C153.883 97.0383 154.837 96.9949 155.704 97.2117" stroke="#353535" stroke-width="3.5865" stroke-miterlimit="10" stroke-linecap="round"/>
<path d="M89.4937 109.526C88.2797 109.222 86.7187 109.266 86.2852 110.653" stroke="#353535" stroke-width="3.5865" stroke-miterlimit="10" stroke-linecap="round"/>
<path d="M83.4668 103.889C84.334 103.542 85.3313 103.586 86.1984 103.542" stroke="#353535" stroke-width="3.5865" stroke-miterlimit="10" stroke-linecap="round"/>
<path d="M129.211 158.695C129.731 163.075 138.62 167.627 142.175 170.532C142.566 170.836 142.956 171.139 143.303 171.443C145.731 173.437 157.264 171.703 158.912 169.015C165.459 158.132 172.83 147.595 176.863 135.064C172.007 133.547 166.587 130.642 161.47 129.601C158.782 129.037 155.4 129.254 153.059 127.997C152.928 128.43 153.059 128.777 152.972 129.211C151.844 135.975 149.243 139.444 149.937 146.251C145.948 145.904 141.135 140.961 137.362 139.444C135.021 138.49 129.514 132.766 123.487 131.335" fill="#353535"/>
<path d="M99.2499 143.996C108.789 145.644 126.133 162.251 130.165 168.104C133.591 173.047 142.219 177.123 157.655 179.248C162.685 179.941 172.441 180.462 172.441 180.462L167.151 197.415C167.151 197.415 156.658 197.545 136.235 192.862C119.889 189.09 106.621 174.608 106.621 174.608" stroke="#B0B0B0" stroke-width="3" stroke-miterlimit="10" stroke-linecap="round"/>
<path d="M87.1089 299.96C87.1089 300.611 86.5886 302.345 86.8487 303.125C87.1522 304.079 88.453 304.079 89.2335 304.166C91.0112 304.34 92.8323 304.34 94.61 304.34C97.0815 304.34 99.553 304.73 102.025 304.816C105.146 304.947 108.442 304.773 111.564 304.556C113.341 304.426 115.076 304.079 116.767 303.559C118.718 302.995 121.059 302.779 121.189 300.35C121.233 299.527 121.059 298.746 120.062 298.703C119.065 298.659 119.368 299.83 118.588 299.917" stroke="#353535" stroke-miterlimit="10"/>
<path d="M225.382 112.387C222.087 112.561 218.661 112.778 215.366 112.518C212.548 112.301 192.993 114.469 190.131 114.555C187.139 114.642 184.017 115.639 181.069 115.336C180.549 111.911 179.378 108.312 178.814 104.713C178.25 100.984 179.031 94.5668 177.643 91.8352C183.063 91.1414 205.22 85.548 210.597 84.0305C213.111 83.2934 217.317 80.7352 220.959 79.5645C221.133 82.3828 221.783 85.5047 222 87.7594C222.347 92.2254 222.477 96.6914 223.648 101.027C223.908 101.938 224.125 102.805 224.341 103.672C224.818 106.577 225.209 109.439 225.382 112.387Z" fill="white" stroke="#B0B0B0" stroke-width="3" stroke-miterlimit="10"/>
<path d="M285.131 111.911C277.89 112.604 253.522 114.989 245.544 115.163C242.552 115.249 228.027 118.414 226.639 116.55C226.509 115.032 226.336 113.558 226.119 112.127C225.686 109.266 225.079 106.447 224.341 103.629C224.125 102.762 223.908 101.895 223.648 100.984C222.477 96.6481 222.347 92.1821 222 87.716C221.827 85.4613 221.176 82.2961 220.959 79.5211C220.959 79.391 220.959 79.261 220.916 79.0875C220.829 77.6567 220.916 76.2692 221.22 75.2285C226.509 72.8004 233.447 72.5403 239.04 70.8926C243.073 69.7219 261.761 65.8196 265.88 64.7789C270.086 63.7383 273.858 62.7844 278.107 62.3942C278.974 62.3074 279.104 61.8305 279.798 61.3102C282.009 65.1258 281.532 72.3235 281.923 76.8762C282.443 83.0766 282.833 89.277 283.137 95.5207C283.397 100.29 283.484 107.575 285.131 111.911Z" fill="white" stroke="#B0B0B0" stroke-width="3" stroke-miterlimit="10"/>
<path d="M180.809 111.867C179.291 111.997 171.269 112.908 168.451 113.211C165.503 113.515 150.674 114.339 141.612 114.989C138.446 115.206 136.018 115.466 134.978 115.639C132.593 116.073 129.861 117.851 127.823 116.68C127.476 116.507 127.173 115.986 126.913 115.336C126.869 115.249 126.869 115.206 126.869 115.206C126.176 113.385 125.916 110.566 127 110.089C133.113 107.401 160.516 101.981 166.457 99.0762C170.402 97.125 174.738 96.1711 178.51 93.8297C179.551 94.0031 180.982 109.352 180.809 111.867Z" fill="#353535"/>
<path d="M192.125 82.166C191.822 91.5316 192.819 109.916 195.464 118.848C196.981 118.805 206.781 119.065 205.133 117.33C205.176 105.233 203.529 92.789 202.965 80.7351C199.93 81.3855 195.334 82.0359 192.125 82.166Z" fill="#FFBD55"/>
<path d="M160.993 131.466C161.21 128.734 165.243 120.929 165.98 118.414C165.156 117.764 162.294 113.905 162.251 113.341" stroke="#353535" stroke-width="3.5865" stroke-miterlimit="10" stroke-linecap="round"/>
<path d="M167.15 134.284C168.104 131.422 171.053 123.097 172.354 120.452" stroke="#353535" stroke-width="3.5865" stroke-miterlimit="10" stroke-linecap="round"/>
<path d="M172.18 96.8215C172.397 94.8703 175.128 90.7078 176.429 94.0465" stroke="#353535" stroke-width="3.5865" stroke-miterlimit="10" stroke-linecap="round"/>
<path d="M163.422 114.078C162.988 112.648 161.991 110.263 161.904 108.745C161.861 108.182 161.47 107.445 161.861 107.098C164.983 104.409 167.628 112.908 172.267 113.341" fill="white"/>
<path d="M175.692 188.873C175.519 190.087 176.82 191.605 177.947 191.952C178.944 192.255 179.985 192.646 181.025 192.906C182.803 193.339 184.754 193.556 186.532 193.903C188.483 194.293 189.134 194.12 190.911 193.426C192.169 192.906 194.423 191.952 195.421 191.041C196.114 190.348 195.724 189.437 195.724 188.57C195.724 187.746 195.941 186.836 196.245 186.055C196.591 185.101 198.066 181.589 196.461 180.895C196.461 180.895 197.545 178.077 194.423 175.519C191.302 172.961 184.451 176.299 184.451 176.299C184.451 176.299 177.427 180.635 177.166 182.283C176.906 184.017 175.692 188.873 175.692 188.873Z" fill="#B0B0B0"/>
<path d="M193.86 171.92C193.86 171.92 198.846 177.34 197.675 178.901C196.505 180.418 195.724 182.37 195.724 182.37L193.166 175.692L193.86 171.92Z" fill="#B0B0B0"/>
<path opacity="0.2" d="M126.956 115.466C127.043 115.64 127.173 115.9 127.346 116.203C127.216 115.986 127.086 115.77 126.956 115.466Z" fill="#353535"/>
<path opacity="0.2" d="M136.018 115.466C136.018 115.813 136.018 116.16 135.975 116.55C135.888 117.374 135.715 118.198 135.411 118.935C134.934 120.192 134.197 121.276 133.33 122.187C131.899 121.363 130.598 120.322 130.035 119.845C129.298 119.238 128.084 117.417 127.39 116.247C127.52 116.463 127.693 116.593 127.823 116.68C129.861 117.851 132.636 116.073 134.978 115.639C135.238 115.596 135.585 115.509 136.018 115.466Z" fill="#353535"/>
<path opacity="0.2" d="M224.341 103.629L210.77 106.837C209.382 107.141 207.951 106.577 207.214 105.363L204.483 86.1117L203.269 86.5453L205.046 113.211L225.382 112.431L224.341 103.629Z" fill="#353535"/>
<path opacity="0.2" d="M192.689 100.897L194.337 114.165L181.025 115.293L180.288 109.916C180.288 109.916 188.83 109.439 190.174 107.705C191.518 105.97 192.689 100.897 192.689 100.897Z" fill="#353535"/>
<path opacity="0.2" d="M275.029 62.8278L273.598 98.7727C273.208 101.114 271.387 102.892 269.045 103.195L225.426 108.962L226.64 116.55C226.64 116.55 238.347 116.94 256.861 114.469C275.376 111.997 285.132 111.911 285.132 111.911L282.357 81.0821L275.029 62.8278Z" fill="#353535"/>
<path d="M354.593 288.08C352.989 263.625 353.769 240.081 364.522 217.447C370.549 204.743 376.143 191.822 383.297 179.725C385.205 176.473 396.045 161.861 401.768 167.107C404.716 169.795 400.727 178.424 399.557 180.939C395.047 190.391 389.627 199.41 385.812 209.209C381.866 219.485 379.785 230.759 376.836 241.382C374.105 251.181 369.942 260.416 367.471 270.172C366.69 273.294 355.374 296.448 354.593 288.08Z" fill="#E7E7E7"/>
<path d="M363.135 252.612C361.01 250.14 361.054 247.712 360.36 244.72C358.799 238.173 356.371 231.582 354.203 225.209C349.217 210.466 346.268 195.377 344.187 179.941C343.363 173.828 332.523 123.401 345.618 124.008C349.91 124.181 348.913 131.682 349.52 135.151C351.038 143.346 353.292 151.194 355.764 159.129C359.579 171.4 362.268 184.451 364.566 197.112C366.257 206.521 369.769 214.976 369.249 224.732C368.858 231.539 368.121 247.669 363.135 252.612Z" fill="#E7E7E7"/>
<path d="M362.528 257.642C360.62 256.124 360.317 254.346 359.363 252.265C357.282 247.669 354.55 243.203 352.035 238.867C346.225 228.808 341.932 218.184 338.16 207.171C336.686 202.835 321.467 167.497 331.136 166.023C334.301 165.546 334.648 171.183 335.602 173.611C337.9 179.378 340.675 184.798 343.623 190.261C348.176 198.673 352.035 207.865 355.547 216.797C358.149 223.474 361.964 229.111 362.962 236.352C363.699 241.425 365.477 253.349 362.528 257.642Z" fill="#E7E7E7"/>
<path d="M357.411 292.936C355.764 292.936 354.116 292.806 352.772 292.719C352.642 292.242 352.772 291.852 353.162 293.717C346.355 292.286 338.68 283.093 333.824 278.281C327.017 271.517 322.897 266.443 318.301 258.249C320.079 258.769 321.813 259.376 323.504 259.983C317.477 253.739 313.965 246.021 311.407 237.653C310.106 233.404 306.811 224.645 309.716 220.439C311.234 220.569 312.881 221.09 314.269 221.827C314.833 213.892 312.058 206.217 312.535 198.196C316.437 197.892 317.824 200.32 320.946 199.28C322.984 198.586 322.767 195.421 326.193 196.808C329.488 198.109 328.577 203.616 331.613 205.524C334.344 207.215 335.558 205.177 337.986 204.786C343.84 203.876 341.976 205.393 346.268 209.513C350.561 213.675 353.899 216.537 356.674 221.783C359.363 226.9 365.173 230.715 366.777 235.615C368.381 240.515 367.948 247.582 367.688 252.655C367.254 261.934 371.113 269.088 368.642 278.627C367.731 282.053 368.035 286.779 365.867 289.727C364.306 291.852 357.975 295.017 355.287 293.24C350.214 289.901 365.26 277.63 367.688 274.031C374.408 264.102 381.563 254.476 390.061 245.978C397.692 238.347 405.237 228.114 408.532 217.794C405.02 221.176 401.248 224.818 397.389 227.81C389.671 233.837 383.861 238.65 378.267 247.495C371.373 258.335 355.634 273.511 356.935 287.603" fill="#E7E7E7"/>
<path d="M364.219 289.511C368.165 287.126 375.276 284.134 380.045 280.925C382.994 278.931 389.845 272.861 381.866 271.516C387.59 270.129 396.739 264.319 395.395 257.381C391.232 256.687 389.584 259.593 386.549 261.5C385.075 255.213 381.346 255.864 376.447 255.04C373.672 254.606 373.585 252.959 370.376 254.563C368.598 255.473 367.298 257.555 366.3 259.116C362.702 264.752 362.138 269.305 362.398 276.026C362.528 279.018 362.485 280.795 361.878 283.787C361.531 285.391 360.057 288.773 364.219 289.511Z" fill="#E7E7E7"/>
<path d="M331.916 216.19C332.523 215.583 333.043 214.933 333.52 214.239C335.992 217.751 334.995 223.344 336.729 227.117C337.77 226.423 339.33 225.512 340.068 224.168C343.363 225.686 343.233 232.493 345.878 235.311C347.222 236.742 348.479 235.745 349.867 237.956C352.165 241.642 350.821 248.883 350.821 253.045" stroke="#353535" stroke-width="2" stroke-miterlimit="10" stroke-linecap="round"/>
<path d="M371.634 233.23C373.802 217.404 378.831 198.716 385.812 184.494" stroke="#353535" stroke-width="2" stroke-miterlimit="10" stroke-linecap="round"/>
<path d="M360.273 188.787C360.273 187.573 360.273 186.402 360.273 185.188C360.23 182.066 358.062 176.906 358.712 174.088C359.579 170.402 360.924 172.744 363.699 173.784C363.915 166.674 366.127 160.647 369.509 154.446C371.417 150.891 372.37 145.904 375.969 143.78C377.747 142.739 378.354 143.216 380.218 142.392C382.993 141.178 384.468 137.449 387.546 136.539C389.497 135.975 392.793 135.888 394.961 135.542C395.524 140.571 391.752 143.606 390.842 148.159C392.099 149.07 393.53 148.246 394.354 149.547C395.221 150.934 393.747 153.883 393.27 155.053C391.969 158.175 390.711 162.945 388.847 165.59C387.72 167.194 385.508 167.844 384.338 169.492C382.863 171.616 382.56 174.695 381.519 177.08C379.785 180.982 377.01 183.584 376.229 187.963C375.622 191.388 375.362 194.9 374.495 198.326C373.368 202.662 371.026 206.044 369.552 210.163C368.902 211.984 368.988 218.488 366.777 218.792C363.265 219.268 361.617 209.166 361.14 206.998C359.623 200.364 356.848 193.816 360.273 188.787Z" fill="#E7E7E7"/>
<path d="M299.657 85.9382C299.657 90.3609 299.787 95.6074 297.749 99.6398" stroke="white" stroke-width="6" stroke-miterlimit="10" stroke-linecap="round"/>
<path d="M195.811 118.848C195.811 118.848 202.271 118.935 203.009 118.588L202.835 122.36C202.662 123.704 198.369 123.748 195.247 122.057L195.811 118.848Z" fill="#353535"/>
<path d="M343.493 283.787C342.149 281.402 335.471 279.538 333.65 282.183C332.87 283.31 335.601 289.901 338.073 291.462C341.715 293.716 349.086 293.586 351.168 294.367C353.466 295.191 356.241 294.107 358.625 293.89C362.224 293.5 365.606 294.193 369.162 294.497C370.636 294.627 372.284 294.627 373.498 293.803C374.365 293.196 375.015 292.025 375.666 291.245C377.053 289.554 378.614 287.95 380.045 286.302C381.172 285.001 383.817 283.05 384.164 281.359C379.915 280.362 376.533 280.709 372.24 280.709C364.392 280.709 355.98 278.887 348.436 281.532C346.485 282.139 344.36 283.007 343.493 283.787Z" fill="#E7E7E7"/>
<path d="M349.563 280.188C351.038 278.324 355.504 274.422 357.888 275.029C357.715 279.625 360.62 276.286 363.135 275.029C366.734 273.164 367.124 277.197 370.506 276.329C372.197 275.896 371.59 275.896 373.107 276.503C375.102 277.283 376.49 277.11 378.571 277.11C381.432 277.11 383.34 278.974 383.557 281.879C383.644 282.877 383.297 283.874 383.384 284.871C383.47 285.782 383.947 286.519 383.861 287.473C383.774 289.034 382.647 289.944 382.647 291.505" stroke="#353535" stroke-width="2" stroke-miterlimit="10" stroke-linecap="round"/>
<path d="M75.3586 27.75C67.1637 27.75 60.2695 33.3867 58.3617 40.9746H50.8172C44.7902 40.9746 39.8906 45.8742 39.8906 51.9012C39.8906 57.9281 44.7902 62.8277 50.8172 62.8277H91.7918C97.8187 62.8277 102.718 57.9281 102.718 51.9012C102.718 46.0477 98.1223 41.2781 92.3555 40.9746C90.4477 33.3867 83.5535 27.75 75.3586 27.75Z" fill="#E9E9E9"/>
<path d="M366.647 62.8278C359.839 62.8278 354.116 67.5106 352.511 73.841C347.699 74.1012 343.883 78.0469 343.883 82.9465C343.883 87.9762 347.959 92.052 352.988 92.052H400.554C405.583 92.052 409.659 87.9762 409.659 82.9465C409.659 77.9168 405.583 73.841 400.554 73.841H380.782C379.177 67.5106 373.497 62.8278 366.647 62.8278Z" fill="#E9E9E9"/>
<path d="M293.023 114.209L285.738 115.249C284.047 115.509 282.443 114.295 282.183 112.604L274.812 61.1367C274.552 59.4457 275.766 57.8414 277.457 57.5813L284.741 56.5406C286.432 56.2805 288.036 57.4945 288.297 59.1856L295.668 110.61C295.884 112.388 294.714 113.948 293.023 114.209Z" fill="#353535"/>
<path opacity="0.2" d="M129.124 31.9558L130.468 34.6875L133.547 35.1644L131.335 37.289L131.856 40.3242L129.124 38.8933L126.392 40.3242L126.913 37.289L124.701 35.1644L127.736 34.6875L129.124 31.9558Z" fill="#353535"/>
<path opacity="0.2" d="M275.072 131.292L276.416 134.067L279.451 134.501L277.24 136.669L277.76 139.704L275.072 138.273L272.34 139.704L272.861 136.669L270.649 134.501L273.684 134.067L275.072 131.292Z" fill="#353535"/>
<path opacity="0.2" d="M358.365 28.2269L359.753 31.0019L362.788 31.4355L360.576 33.5601L361.097 36.5953L358.365 35.1644L355.634 36.5953L356.154 33.5601L353.943 31.4355L357.021 31.0019L358.365 28.2269Z" fill="#353535"/>
<path opacity="0.2" d="M223.951 28.2269L224.645 29.6144L226.163 29.8312L225.035 30.9152L225.296 32.4328L223.951 31.6957L222.607 32.4328L222.867 30.9152L221.74 29.8312L223.258 29.6144L223.951 28.2269Z" fill="#353535"/>
<path opacity="0.2" d="M414.429 104.496L415.123 105.884L416.64 106.1L415.556 107.184L415.816 108.702L414.429 108.008L413.085 108.702L413.345 107.184L412.218 106.1L413.735 105.884L414.429 104.496Z" fill="#353535"/>
<path opacity="0.2" d="M424.878 32.4329L425.572 33.777L427.09 34.0372L426.006 35.0778L426.266 36.5954L424.878 35.9016L423.534 36.5954L423.794 35.0778L422.667 34.0372L424.185 33.777L424.878 32.4329Z" fill="#353535"/>
<path opacity="0.2" d="M23.0238 32.4329L23.7176 33.777L25.2352 34.0372L24.1078 35.0778L24.368 36.5954L23.0238 35.9016L21.6363 36.5954L21.8965 35.0778L20.8125 34.0372L22.3301 33.777L23.0238 32.4329Z" fill="#353535"/>
<path opacity="0.2" d="M53.3754 110.697L54.0691 112.084L55.5867 112.301L54.4594 113.385L54.7195 114.902L53.3754 114.165L51.9879 114.902L52.248 113.385L51.1641 112.301L52.6816 112.084L53.3754 110.697Z" fill="#353535"/>
</svg>
