<svg width="1440" height="900" viewBox="0 0 1440 900" fill="none" xmlns="http://www.w3.org/2000/svg">
<g clip-path="url(#clip0)">
<rect opacity="0.2" x="-0.000244141" y="713.06" width="1440" height="186.94" fill="#C0CDE7"/>
<path d="M1200.75 182.567H482.283V201.287H1200.75V182.567Z" fill="#C1CEE5"/>
<path d="M297.504 484.75H262.594L261.013 481.537L259.304 478.055L252.953 465.126V436.399H283.091V459.829L293.631 478.055L295.647 481.537L297.504 484.75Z" fill="#C1CEE5"/>
<path d="M113.196 731.624H102.661V747.061H113.196V731.624Z" fill="#C1CEE5"/>
<path d="M542.924 731.624H532.389V747.061H542.924V731.624Z" fill="#C1CEE5"/>
<path d="M893.078 731.624H882.543V747.061H893.078V731.624Z" fill="#C1CEE5"/>
<path d="M716.353 731.624H705.818V747.061H716.353V731.624Z" fill="#C1CEE5"/>
<path d="M516.702 481.146C506.171 477.543 497.712 477.574 492.735 478.005C484.434 478.724 477.627 481.268 468.254 484.769C459.652 487.983 460.342 488.957 456.142 489.843C446.586 491.859 440.809 488.167 430.371 486.461C421.572 485.023 416.837 486.057 404.343 487.427C388.209 489.196 384.705 487.421 340.949 486.944C283.639 486.319 266.341 489.108 248.691 485.011C244.636 484.07 237.762 482.115 228.075 482.354C215.645 482.66 208.753 486.326 207.459 484.286C205.954 481.915 212.678 472.867 222.663 469.549C233.878 465.823 239.538 472.536 249.207 468.341C256.244 465.288 260.794 458.457 262.35 452.638C264.852 443.279 259.004 438.816 258.999 427.27C258.996 418.505 262.363 411.369 265.184 406.734" stroke="#C1CEE5" stroke-width="1.12148" stroke-miterlimit="10"/>
<path d="M380.787 450.476H171.673C165.42 450.476 159.069 445.744 157.478 439.91L125.008 320.685C123.418 314.851 127.201 310.118 133.444 310.118H342.558C348.811 310.118 355.163 314.851 356.753 320.685L366.128 355.089L379.849 405.505L389.223 439.91C390.814 445.744 387.04 450.476 380.787 450.476Z" fill="#C1CEE5"/>
<path d="M552.406 543.053H93.1792V596.98H552.406V543.053Z" fill="#C1CEE5"/>
<path d="M552.406 612.146H93.1792V666.073H552.406V612.146Z" fill="#C1CEE5"/>
<path d="M552.406 681.239H93.1792V735.166H552.406V681.239Z" fill="#C1CEE5"/>
<path d="M901.908 543.053H696.987V735.167H901.908V543.053Z" fill="#C1CEE5"/>
<path d="M925.156 490.811H69.9329V527.886H925.156V490.811Z" fill="#C1CEE5"/>
<path d="M1385.29 420.452C1382.46 440.112 1387.01 444.107 1385.43 459.14C1381.43 497.331 1349.13 499.607 1337.36 536.067C1324.1 577.168 1357.52 597.9 1341.64 630.491C1327.6 659.295 1291.97 662.651 1289.3 688.509C1288.94 692.005 1288.43 703.195 1286.06 720.534C1285.24 726.514 1284.45 731.409 1283.9 734.635C1284.03 719.378 1282.45 697.274 1273.44 673.505C1263.01 646.021 1253.59 645.147 1249.75 626.855C1243.51 597.049 1264.93 582.161 1282.23 529.537C1297.99 481.63 1285.56 477.778 1299.18 447.48C1326.59 386.489 1395.56 360.705 1402.38 369.836C1406.07 374.768 1390.01 387.737 1385.29 420.452Z" fill="#C1CEE5"/>
<path d="M1287.77 718.3C1245.86 665.97 1244.35 640.653 1252.64 627.286C1260.46 614.673 1275.16 615.669 1295.92 598.482C1314.21 583.334 1328.42 561.343 1332.91 541.602C1345.61 485.767 1279.58 452.378 1296.45 410.907C1306.05 387.289 1328.71 395.073 1341.28 371.154C1364.03 327.877 1299.93 283.247 1302.8 208.982C1303.34 194.801 1305.3 163.739 1328.09 134.616C1345.05 112.947 1366.39 101.565 1379.3 95.9502" stroke="#C1CEE5" stroke-width="1.59575" stroke-miterlimit="10"/>
<path d="M1262.63 701.603C1241.54 701.045 1220.05 672.812 1222.75 650.65C1224.69 634.785 1237.74 632.529 1239.09 617.638C1240.77 599.247 1222.5 584.586 1213.6 575.296C1172.26 532.158 1166.06 437.426 1193.99 377.944C1210.83 342.081 1240.46 318.241 1249.33 311.103C1264.32 299.043 1278.27 291.289 1288.44 286.412C1313.08 271.031 1324.59 272.141 1330.49 276.75C1345.85 288.754 1325.88 326.643 1345.38 356.996C1348.44 361.765 1355.57 372.565 1359.12 388.88C1360.02 393.031 1360.35 397.651 1360.02 403.779C1357.01 460.544 1307.47 472.256 1304.46 530.802C1302.5 569.005 1323.16 572.435 1318.84 616.92C1315.54 650.93 1299.75 687.108 1275.05 698.733C1271.41 700.445 1267.35 701.728 1262.63 701.603Z" fill="#C1CEE5"/>
<path d="M1270.6 682.62C1272.72 663.947 1273.78 636.996 1267.84 605.311C1263.53 582.32 1261.02 568.955 1251.54 554.013C1227.6 516.297 1189.29 515.91 1188.77 496.575C1188.17 474.607 1237.45 468.494 1240.02 440.799C1241.68 422.948 1222.23 414.534 1205.64 390.082C1193.13 371.638 1180.59 341.636 1185.32 292.715" stroke="#C1CEE5" stroke-width="1.59575" stroke-miterlimit="10"/>
<path d="M1361.24 762.589H1198.43C1198.87 725.93 1235.16 696.327 1279.84 696.327C1324.53 696.327 1360.8 725.93 1361.24 762.589Z" fill="#C1CEE5"/>
<path d="M1227.97 657.268H1331.7C1342.43 657.268 1349.9 667.516 1345.72 676.781C1335.79 698.777 1310.03 714.45 1279.84 714.45C1249.63 714.45 1223.88 698.776 1213.95 676.78C1209.77 667.514 1217.24 657.268 1227.97 657.268Z" fill="#C1CEE5"/>
<path d="M708.604 461.935C712.71 461.935 716.05 465.067 716.05 468.917C716.05 472.766 712.71 475.898 708.604 475.898C704.498 475.898 701.157 472.766 701.157 468.917C701.157 465.067 704.498 461.935 708.604 461.935ZM708.604 458.33C702.367 458.33 697.311 463.069 697.311 468.917C697.311 474.764 702.367 479.504 708.604 479.504C714.841 479.504 719.897 474.764 719.897 468.917C719.897 463.069 714.841 458.33 708.604 458.33Z" fill="#C1CEE5"/>
<path d="M697.924 487.358H688.841C682.943 487.358 678.162 482.875 678.162 477.346C678.162 477.346 678.299 456.517 678.468 450.476H708.297C708.466 456.517 708.603 477.346 708.603 477.346C708.603 482.875 703.822 487.358 697.924 487.358Z" fill="#C1CEE5"/>
<path d="M718.147 490.811H668.618C668.618 488.904 670.267 487.358 672.301 487.358H714.465C716.499 487.358 718.147 488.904 718.147 490.811Z" fill="#C1CEE5"/>
<path d="M534.691 485.978H501.756C498.816 485.978 496.819 483.242 497.795 480.642C500.76 472.746 508.788 467.094 518.224 467.094C527.659 467.094 535.687 472.746 538.652 480.642C539.629 483.242 537.631 485.978 534.691 485.978Z" fill="#C1CEE5"/>
<path d="M559.223 490.868H476.758V489.804C476.758 487.692 478.585 485.98 480.838 485.98H555.144C557.397 485.98 559.223 487.692 559.223 489.804V490.868Z" fill="#C1CEE5"/>
<path d="M283.095 450.473H252.955V456.952H283.095V450.473Z" fill="#C1CEE5"/>
<path d="M295.646 481.537H261.013L259.304 478.055H293.631L295.646 481.537Z" fill="#C1CEE5"/>
<path d="M883.413 625.907H876.197V652.312H883.413V625.907Z" fill="#DEE5F2"/>
<path d="M290.463 566.633V573.398H355.124V566.633H290.463Z" fill="#DEE5F2"/>
<path d="M290.463 635.726V642.491H355.124V635.726H290.463Z" fill="#DEE5F2"/>
<path d="M290.463 704.819V711.584H355.124V704.819H290.463Z" fill="#DEE5F2"/>
<path d="M373.488 490.863H179.853C179.853 488.289 180.97 485.955 182.767 484.27C184.565 482.584 187.055 481.538 189.811 481.538H363.53C369.033 481.538 373.488 485.715 373.488 490.863Z" fill="#C1CEE5"/>
<path d="M788.743 151.959V178.666H923.411V151.959H788.743Z" fill="#C1CEE5"/>
<path d="M788.743 118.778V145.485H923.411V118.778H788.743Z" fill="#C1CEE5"/>
<path d="M999.06 65.6617H970.573V178.665H999.06V65.6617Z" fill="#C1CEE5"/>
<path d="M1034.45 65.6616H1005.97V178.665H1034.45V65.6616Z" fill="#C1CEE5"/>
<path d="M1069.85 65.6616H1041.36V178.665H1069.85V65.6616Z" fill="#C1CEE5"/>
<path d="M1105.24 65.6616H1076.75V178.665H1105.24V65.6616Z" fill="#C1CEE5"/>
<path d="M622.721 175.897C646.579 175.897 665.92 157.765 665.92 135.398C665.92 113.03 646.579 94.8982 622.721 94.8982C598.862 94.8982 579.521 113.03 579.521 135.398C579.521 157.765 598.862 175.897 622.721 175.897Z" fill="#C1CEE5"/>
<path d="M603.321 103.736V101.219C603.321 91.1739 612.006 83.0309 622.721 83.0309H622.721C633.435 83.0309 642.121 91.1739 642.121 101.219V103.736C642.121 113.781 633.435 121.924 622.721 121.924H622.721C612.006 121.924 603.321 113.781 603.321 103.736Z" stroke="#C1CEE5" stroke-width="1.94283" stroke-miterlimit="10"/>
<path d="M590.771 178.665C587.227 178.665 585.049 175.029 586.892 172.191L598.516 154.302C599.34 153.034 600.81 152.259 602.395 152.259C605.939 152.259 608.118 155.895 606.274 158.733L594.651 176.622C593.826 177.891 592.356 178.665 590.771 178.665Z" fill="#C1CEE5"/>
<path d="M654.67 178.665C658.214 178.665 660.392 175.029 658.549 172.191L646.925 154.302C646.101 153.033 644.631 152.259 643.046 152.259C639.502 152.259 637.323 155.895 639.167 158.733L650.79 176.622C651.615 177.89 653.085 178.665 654.67 178.665Z" fill="#C1CEE5"/>
<path d="M622.721 169.652C642.9 169.652 659.259 154.316 659.259 135.398C659.259 116.48 642.9 101.143 622.721 101.143C602.541 101.143 586.182 116.48 586.182 135.398C586.182 154.316 602.541 169.652 622.721 169.652Z" fill="#C1CEE5"/>
<path d="M661.029 119.421L644.556 103.978L650.085 98.7946C654.174 94.9609 660.805 94.9609 664.894 98.7946L666.557 100.354C670.647 104.188 670.647 110.404 666.557 114.237L661.029 119.421Z" fill="#C1CEE5"/>
<path d="M584.413 119.421L600.885 103.978L595.357 98.7946C591.267 94.9609 584.637 94.9609 580.548 98.7946L578.884 100.354C574.795 104.188 574.795 110.404 578.884 114.237L584.413 119.421Z" fill="#C1CEE5"/>
<path d="M622.89 110.344C623.191 114.52 623.448 118.695 623.664 122.871C623.876 127.047 624.038 131.222 624.314 135.397L622.721 133.905C624.338 133.806 625.955 133.74 627.571 133.751C629.188 133.748 630.805 133.85 632.421 133.951C635.655 134.184 638.888 134.526 642.121 135.239V135.556C638.888 136.269 635.655 136.612 632.421 136.844C630.805 136.946 629.188 137.047 627.571 137.045C625.955 137.056 624.338 136.989 622.721 136.891L621.037 136.788L621.128 135.397C621.404 131.222 621.566 127.047 621.778 122.871C621.994 118.695 622.251 114.52 622.552 110.344H622.89Z" fill="#C1CEE5"/>
<path d="M622.721 138.209C624.377 138.209 625.719 136.95 625.719 135.398C625.719 133.845 624.377 132.587 622.721 132.587C621.065 132.587 619.722 133.845 619.722 135.398C619.722 136.95 621.065 138.209 622.721 138.209Z" fill="#C1CEE5"/>
<path d="M683.704 460.111H709.1" stroke="#C1CEE5" stroke-width="3.20511" stroke-miterlimit="10" stroke-linecap="round"/>
<path d="M477.975 527.886H727.677" stroke="#C1CEE5" stroke-width="1.40246" stroke-miterlimit="10"/>
<path d="M93.1792 735.166H552.406" stroke="#C1CEE5" stroke-width="1.40246" stroke-miterlimit="10"/>
<path d="M696.987 735.166H901.908" stroke="#C1CEE5" stroke-width="1.40246" stroke-miterlimit="10"/>
<path d="M744.181 527.886H933.978" stroke="#C1CEE5" stroke-width="1.40246" stroke-miterlimit="10"/>
</g>
<defs>
<clipPath id="clip0">
<rect width="1440" height="900" fill="white"/>
</clipPath>
</defs>
</svg>
