<svg width="126" height="25" viewBox="0 0 126 25" fill="none" xmlns="http://www.w3.org/2000/svg">
<mask id="facebook" mask-type="alpha" maskUnits="userSpaceOnUse" x="0" y="0" width="126" height="25">
<path d="M7.9821 24.067H3.23429V12.2036H0V8.34113H3.23417V5.59271C3.23417 2.33582 4.66465 0 9.3996 0C10.401 0 11.9733 0.202324 11.9733 0.202324V3.78884H10.3219C8.63932 3.78884 7.98235 4.30185 7.98235 5.72014V8.34113H11.9103L11.5605 12.2036H7.98223L7.9821 24.067ZM18.8761 8.03247C18.8069 8.03247 18.7357 8.035 18.6653 8.03676C14.2628 8.03676 12.2486 11.356 12.2486 16.0678C12.2486 22.0034 14.8613 24.379 18.6997 24.379C20.8957 24.379 22.3385 23.4525 23.2155 21.7236V24.0686H27.7313V8.34278H23.2155V10.7612C22.4994 9.20524 21.0163 8.05091 18.8761 8.03247ZM20.0243 11.7484C21.8733 11.7484 22.9832 13.0412 22.9832 15.2401L22.9874 17.486C22.9874 18.9681 22.0708 20.702 20.0243 20.702C16.8781 20.702 16.9621 17.2968 16.9621 16.1627C16.9621 12.3477 18.6384 11.7484 20.0243 11.7484ZM29.5551 16.2065C29.5551 14.2955 29.4638 8.0427 37.5913 8.0427C40.8539 8.0427 42.2162 9.08248 42.2162 9.08248L41.1212 12.4865C41.1212 12.4865 39.7607 11.7356 37.9879 11.7356C35.7172 11.7356 34.2683 13.055 34.2683 15.3764L34.2709 17.0409C34.2709 19.2716 35.6688 20.7606 37.9925 20.7606C39.6076 20.7606 41.0962 20.0026 41.0962 20.0026L42.1883 23.3355C42.1883 23.3355 40.9427 24.3818 37.6142 24.3818C29.8755 24.3818 29.5552 18.7718 29.5552 16.2065H29.5551ZM68.6942 8.03676C73.0968 8.03676 75.1427 11.356 75.1427 16.0678C75.1427 22.0034 72.5299 24.379 68.6916 24.379C66.4955 24.379 64.8721 23.4527 63.9952 21.7236V24.0686L59.5361 24.0668V0.478152L64.2705 0.064284V10.5481C64.9538 8.71395 67.1993 8.03676 68.6943 8.03676H68.6942ZM67.3669 11.7484C65.5179 11.7484 64.2705 13.0412 64.2705 15.2401L64.2661 17.486C64.2633 18.9681 65.1299 20.702 67.3669 20.702C70.5131 20.702 70.4291 17.2968 70.4291 16.1627C70.4291 12.3477 68.7529 11.7484 67.3669 11.7484ZM50.4306 8.04977C45.4372 8.04977 42.8011 10.7786 42.8011 15.6281V16.5291C42.8011 22.8232 46.5031 24.4437 50.9166 24.4437C55.2065 24.4437 57.1483 23.241 57.1483 23.241L56.2624 20.0382C56.2624 20.0382 53.9783 21.0123 51.4842 21.0123C48.8987 21.0123 47.7868 20.3518 47.5017 17.8612H57.5268V15.2918C57.5268 10.0313 54.5682 8.04965 50.4305 8.04965L50.4306 8.04977ZM50.5509 11.2569C52.2794 11.2569 53.3994 12.3193 53.3379 14.7832H47.5104C47.6115 12.19 48.8193 11.257 50.5509 11.257V11.2569ZM84.5828 8.02818C79.455 8.02818 76.7554 10.9246 76.7554 16.1152C76.7554 23.237 81.4089 24.3833 84.5914 24.3833C89.2503 24.3833 92.3499 21.8692 92.3499 16.1799C92.3499 10.2583 88.8648 8.02818 84.5828 8.02818ZM84.5183 11.7613C86.7731 11.7613 87.6665 13.4528 87.6665 15.3781V17.0335C87.6665 19.3659 86.4163 20.715 84.5097 20.715C82.7266 20.715 81.4734 19.453 81.4734 17.0335V15.3781C81.4734 12.7977 82.9646 11.7613 84.5183 11.7613ZM101.782 8.02818C96.6537 8.02818 93.9542 10.9246 93.9542 16.1152C93.9542 23.237 98.6076 24.3833 101.79 24.3833C106.449 24.3833 109.549 21.8692 109.549 16.1799C109.549 10.2583 106.063 8.02818 101.782 8.02818ZM101.717 11.7613C103.972 11.7613 104.865 13.4528 104.865 15.3781V17.0335C104.865 19.3659 103.615 20.715 101.708 20.715C99.9253 20.715 98.6721 19.453 98.6721 17.0335V15.3781C98.6721 12.7977 100.163 11.7613 101.717 11.7613ZM111.338 24.067V0.478152L116.086 0.064284V15.875L120.796 8.34113H125.811L120.897 16.144L126 24.067H120.971L116.086 16.3739V24.067H111.338Z" fill="#1877F2"/>
</mask>
<g mask="url(#facebook)">
<rect y="-4.5" width="126" height="38.25" fill="#C4C4C4"/>
</g>
</svg>
