<svg width="92" height="31" viewBox="0 0 92 31" fill="none" xmlns="http://www.w3.org/2000/svg">
<mask id="google" mask-type="alpha" maskUnits="userSpaceOnUse" x="0" y="0" width="92" height="31">
<g clip-path="url(#clip0)">
<path d="M89.1346 18.6267L91.6868 20.3446C90.8584 21.5764 88.8772 23.6898 85.4519 23.6898C81.1983 23.6898 78.0305 20.3672 78.0305 16.1404C78.0305 11.6424 81.2319 8.59094 85.0937 8.59094C88.9779 8.59094 90.8808 11.7102 91.4965 13.3941L91.8323 14.253L81.8252 18.4346C82.5863 19.949 83.7729 20.7175 85.4519 20.7175C87.131 20.7175 88.2951 19.8812 89.1346 18.6267ZM81.2879 15.9031L87.9705 13.1003C87.6011 12.1622 86.5041 11.4954 85.1944 11.4954C83.5266 11.4954 81.2095 12.9873 81.2879 15.9031Z" fill="#FF302F"/>
<path d="M73.2061 0.894653H76.4298V23.0005H73.2061V0.894653Z" fill="#20B15A"/>
<path d="M68.124 9.17869H71.2358V22.605C71.2358 28.1766 67.9785 30.4708 64.1279 30.4708C60.5011 30.4708 58.3184 28.0071 57.5012 26.0067L60.3556 24.8088C60.8705 26.0406 62.113 27.4985 64.1279 27.4985C66.6017 27.4985 68.124 25.9502 68.124 23.057V21.9721H68.0121C67.2733 22.8762 65.8629 23.6899 64.0719 23.6899C60.3332 23.6899 56.908 20.4011 56.908 16.1631C56.908 11.9024 60.3332 8.57971 64.0719 8.57971C65.8517 8.57971 67.2733 9.38212 68.0121 10.2636H68.124V9.17869ZM68.3479 16.1631C68.3479 13.4959 66.5905 11.552 64.3517 11.552C62.0906 11.552 60.1877 13.4959 60.1877 16.1631C60.1877 18.7963 62.0906 20.7063 64.3517 20.7063C66.5905 20.7176 68.3479 18.7963 68.3479 16.1631Z" fill="#3686F7"/>
<path d="M39.2108 16.1065C39.2108 20.4576 35.8527 23.656 31.7335 23.656C27.6142 23.656 24.2561 20.4463 24.2561 16.1065C24.2561 11.7328 27.6142 8.54578 31.7335 8.54578C35.8527 8.54578 39.2108 11.7328 39.2108 16.1065ZM35.9423 16.1065C35.9423 13.3941 33.9946 11.5294 31.7335 11.5294C29.4723 11.5294 27.5246 13.3941 27.5246 16.1065C27.5246 18.7963 29.4723 20.6837 31.7335 20.6837C33.9946 20.6837 35.9423 18.7963 35.9423 16.1065Z" fill="#FF302F"/>
<path d="M55.5424 16.1404C55.5424 20.4915 52.1843 23.6898 48.065 23.6898C43.9457 23.6898 40.5876 20.4915 40.5876 16.1404C40.5876 11.7667 43.9457 8.59094 48.065 8.59094C52.1843 8.59094 55.5424 11.7554 55.5424 16.1404ZM52.2626 16.1404C52.2626 13.428 50.3149 11.5633 48.0538 11.5633C45.7927 11.5633 43.845 13.428 43.845 16.1404C43.845 18.8302 45.7927 20.7175 48.0538 20.7175C50.3261 20.7175 52.2626 18.8189 52.2626 16.1404Z" fill="#FFBA40"/>
<path d="M11.9655 20.3785C7.27534 20.3785 3.60382 16.5586 3.60382 11.8232C3.60382 7.08787 7.27534 3.26794 11.9655 3.26794C14.4952 3.26794 16.3422 4.27378 17.7078 5.56216L19.9577 3.29055C18.0548 1.44839 15.5139 0.0469971 11.9655 0.0469971C5.54032 0.0469971 0.133789 5.33613 0.133789 11.8232C0.133789 18.3103 5.54032 23.5995 11.9655 23.5995C15.4355 23.5995 18.0548 22.4467 20.1033 20.2994C22.2077 18.1747 22.8569 15.1911 22.8569 12.7726C22.8569 12.0154 22.7674 11.2355 22.6666 10.6592H11.9655V13.801H19.5884C19.3645 15.7675 18.7488 17.1124 17.8421 18.0278C16.7452 19.1466 15.0102 20.3785 11.9655 20.3785Z" fill="#3686F7"/>
</g>
</mask>
<g mask="url(#google)">
<rect x="-1.69312" y="-5.64417" width="96.5153" height="40.638" fill="#C4C4C4"/>
</g>
<defs>
<clipPath id="clip0">
<rect width="92" height="30.4785" fill="white"/>
</clipPath>
</defs>
</svg>
