<svg width="139" height="34" viewBox="0 0 139 34" fill="none" xmlns="http://www.w3.org/2000/svg">
<mask id="linkedin" mask-type="alpha" maskUnits="userSpaceOnUse" x="0" y="0" width="139" height="34">
<g clip-path="url(#clip0)">
<path d="M0 4.94751H5.19255V23.7324H14.8055V28.4916H0V4.94751Z" fill="#0A66C2"/>
<path d="M17.101 12.528H22.0894V28.4828H17.101V12.528ZM19.5952 4.59607C20.1675 4.59617 20.7269 4.76482 21.2027 5.08067C21.6786 5.39653 22.0494 5.84543 22.2683 6.37059C22.4872 6.89575 22.5445 7.47359 22.4328 8.03106C22.321 8.58852 22.0454 9.10057 21.6407 9.50245C21.236 9.90433 20.7204 10.178 20.159 10.2889C19.5977 10.3997 19.0159 10.3428 18.4872 10.1252C17.9584 9.90768 17.5065 9.53931 17.1886 9.0667C16.8706 8.59409 16.7009 8.03845 16.7009 7.47005C16.7009 7.09259 16.7758 6.71883 16.9213 6.37011C17.0667 6.02139 17.2799 5.70454 17.5487 5.43766C17.8174 5.17078 18.1365 4.95909 18.4877 4.81469C18.8388 4.67029 19.2151 4.596 19.5952 4.59607Z" fill="#0A66C2"/>
<path d="M42.9563 4.94397H47.9446V19.0146L53.5981 12.5209H59.714L53.1668 19.9074L59.5763 28.4896H53.3066L48.0112 20.603H47.9457V28.4886H42.9573L42.9563 4.94397Z" fill="#0A66C2"/>
<path d="M24.8555 12.5296H29.6458V14.71H29.7139C30.1924 13.8958 30.8845 13.226 31.7164 12.7721C32.5483 12.3182 33.4887 12.0972 34.4372 12.1327C39.4957 12.1327 40.4269 15.4382 40.4269 19.7324V28.4818H35.4385V20.7248C35.4385 18.8731 35.4042 16.493 32.8404 16.493C30.2475 16.493 29.8474 18.5093 29.8474 20.5901V28.4797H24.8591L24.8555 12.5296Z" fill="#0A66C2"/>
<path d="M70.2191 18.6497C70.2287 18.2478 70.156 17.8481 70.0054 17.4749C69.8548 17.1017 69.6296 16.7627 69.3432 16.4785C69.0569 16.1943 68.7154 15.9708 68.3395 15.8215C67.9637 15.6723 67.5612 15.6003 67.1565 15.6101C66.2849 15.5562 65.4269 15.8447 64.7675 16.4133C64.1081 16.9819 63.7001 17.7851 63.6314 18.6497H70.2191ZM74.4447 25.7199C73.6157 26.7182 72.5736 27.5209 71.3938 28.07C70.214 28.619 68.926 28.9005 67.6231 28.8942C62.6348 28.8942 58.641 25.5872 58.641 20.4663C58.641 15.3453 62.6343 12.0399 67.6231 12.0399C72.2857 12.0399 75.2095 15.3428 75.2095 20.4663V22.0196H63.6314C63.7756 22.9006 64.2354 23.7002 64.9263 24.271C65.6171 24.8418 66.4924 25.1454 67.3908 25.1259C68.1009 25.1215 68.7985 24.9408 69.4202 24.6003C70.042 24.2598 70.5681 23.7702 70.9508 23.1762L74.4447 25.7199Z" fill="#0A66C2"/>
<path d="M85.6072 16.3847C83.113 16.3847 81.6165 18.0387 81.6165 20.4487C81.6165 22.8587 83.1125 24.5143 85.6072 24.5143C88.1019 24.5143 89.6015 22.8629 89.6015 20.4487C89.6015 18.0345 88.1045 16.3847 85.6072 16.3847ZM94.1939 28.4797H89.6015V26.3639H89.5334C88.9573 27.1335 88.21 27.7606 87.3498 28.1964C86.4896 28.6321 85.5397 28.8647 84.5742 28.8761C79.7812 28.8761 76.624 25.4406 76.624 20.5824C76.624 16.1204 79.418 12.0234 84.0109 12.0234C86.0753 12.0234 88.0036 12.5843 89.1349 14.1392H89.2003V4.94238H94.1933L94.1939 28.4797Z" fill="#0A66C2"/>
<path d="M127.87 28.489H122.881V20.7304C122.881 18.8803 122.848 16.4987 120.287 16.4987C117.689 16.4987 117.291 18.5144 117.291 20.5957V28.4885H112.303V12.5337H117.092V14.7141H117.159C117.638 13.9003 118.331 13.2308 119.163 12.777C119.995 12.3231 120.935 12.1019 121.884 12.1369C126.94 12.1369 127.872 15.4397 127.872 19.7365L127.87 28.489ZM106.674 10.3528C106.102 10.3529 105.542 10.1844 105.066 9.86858C104.59 9.55275 104.219 9.1038 104 8.5785C103.781 8.0532 103.723 7.47514 103.835 6.91742C103.946 6.3597 104.222 5.84737 104.627 5.44522C105.031 5.04307 105.547 4.76916 106.109 4.65813C106.67 4.54709 107.252 4.60393 107.781 4.82143C108.31 5.03894 108.762 5.40736 109.081 5.8801C109.399 6.35284 109.569 6.90866 109.569 7.47729C109.569 7.85484 109.494 8.22871 109.349 8.57755C109.203 8.92639 108.99 9.24336 108.721 9.51038C108.453 9.7774 108.133 9.98923 107.782 10.1338C107.431 10.2783 107.055 10.3528 106.674 10.3528ZM109.169 28.489H104.175V12.5337H109.169V28.489ZM130.357 0.00203387H101.669C101.017 -0.00526404 100.39 0.24448 99.9241 0.696387C99.4583 1.14829 99.1922 1.76539 99.1842 2.41207V31.0224C99.1919 31.6694 99.4578 32.2869 99.9236 32.7393C100.389 33.1917 101.017 33.4419 101.669 33.435H130.357C131.009 33.4431 131.639 33.1936 132.106 32.7413C132.574 32.2889 132.842 31.6707 132.851 31.0224V2.41001C132.841 1.76204 132.574 1.14424 132.106 0.692349C131.638 0.240454 131.009 -0.00857713 130.357 -3.12379e-05" fill="#0A66C2"/>
</g>
</mask>
<g mask="url(#linkedin)">
<rect x="-2.38281" y="-5.56006" width="145.354" height="44.48" fill="#C4C4C4"/>
</g>
<defs>
<clipPath id="clip0">
<rect width="139" height="33.7127" fill="white"/>
</clipPath>
</defs>
</svg>
