<svg width="174" height="56" viewBox="0 0 174 56" fill="none" xmlns="http://www.w3.org/2000/svg">
<path d="M1.952 39V17.88H18.976V22.776H8.48V26.2H16.864V30.744H8.48V34.104H19.392V39H1.952ZM33.344 23V27.448H29.088V39H22.624V27.448H20.256V23H22.624V21.976C22.624 20.4613 22.944 19.256 23.584 18.36C24.2453 17.464 25.0987 16.824 26.144 16.44C27.1893 16.056 28.2773 15.864 29.408 15.864C30.368 15.864 31.2107 15.9707 31.936 16.184C32.6613 16.376 33.1947 16.5893 33.536 16.824L33.024 20.664C32.8107 20.5573 32.5547 20.4613 32.256 20.376C31.9573 20.2693 31.5733 20.216 31.104 20.216C30.3787 20.216 29.792 20.3653 29.344 20.664C28.896 20.9627 28.672 21.5173 28.672 22.328V23H33.344ZM46.304 23V27.448H42.048V39H35.584V27.448H33.216V23H35.584V21.976C35.584 20.4613 35.904 19.256 36.544 18.36C37.2053 17.464 38.0587 16.824 39.104 16.44C40.1493 16.056 41.2373 15.864 42.368 15.864C43.328 15.864 44.1707 15.9707 44.896 16.184C45.6213 16.376 46.1547 16.5893 46.496 16.824L45.984 20.664C45.7707 20.5573 45.5147 20.4613 45.216 20.376C44.9173 20.2693 44.5333 20.216 44.064 20.216C43.3387 20.216 42.752 20.3653 42.304 20.664C41.856 20.9627 41.632 21.5173 41.632 22.328V23H46.304ZM51.296 21.592C50.016 21.592 49.088 21.3787 48.512 20.952C47.9573 20.504 47.68 19.768 47.68 18.744C47.68 17.72 47.9573 16.984 48.512 16.536C49.088 16.088 50.016 15.864 51.296 15.864C52.5973 15.864 53.5253 16.088 54.08 16.536C54.6347 16.984 54.912 17.72 54.912 18.744C54.912 19.768 54.6347 20.504 54.08 20.952C53.5253 21.3787 52.5973 21.592 51.296 21.592ZM54.528 23V39H48.064V23H54.528ZM57.6618 39V23H63.4858L63.6458 26.296C64.1151 25.1227 64.8191 24.2267 65.7578 23.608C66.6964 22.9893 67.8164 22.68 69.1178 22.68C70.3124 22.68 71.3258 22.9573 72.1578 23.512C73.0111 24.0453 73.6191 24.8347 73.9818 25.88C74.4938 24.8347 75.2084 24.0453 76.1258 23.512C77.0644 22.9573 78.1311 22.68 79.3258 22.68C80.9044 22.68 82.1631 23.1493 83.1018 24.088C84.0618 25.0267 84.5418 26.392 84.5418 28.184V39H78.0778V29.784C78.0778 28.9307 77.9391 28.344 77.6618 28.024C77.3844 27.6827 76.9898 27.512 76.4778 27.512C75.8164 27.512 75.2938 27.768 74.9097 28.28C74.5258 28.7707 74.3338 29.528 74.3338 30.552V39H67.8698V29.784C67.8698 28.9307 67.7311 28.344 67.4538 28.024C67.1764 27.6827 66.7818 27.512 66.2698 27.512C65.6298 27.512 65.1071 27.7573 64.7018 28.248C64.3178 28.7387 64.1258 29.5173 64.1258 30.584V39H57.6618ZM96.4305 28.952C96.4305 28.3333 96.2705 27.8533 95.9505 27.512C95.6305 27.1493 95.1825 26.968 94.6065 26.968C94.0518 26.968 93.5718 27.1173 93.1665 27.416C92.7825 27.7147 92.5372 28.28 92.4305 29.112L86.9585 28.12C87.1718 26.456 87.9505 25.1333 89.2945 24.152C90.6385 23.1707 92.5585 22.68 95.0545 22.68C97.6145 22.68 99.5452 23.224 100.847 24.312C102.169 25.4 102.831 26.8933 102.831 28.792V34.168C102.831 35.0213 103.236 35.448 104.047 35.448C104.345 35.448 104.58 35.4053 104.751 35.32L104.431 38.776C103.705 39.1387 102.841 39.32 101.839 39.32C100.708 39.32 99.7372 39.1173 98.9265 38.712C98.1158 38.2853 97.5718 37.6453 97.2945 36.792C96.8678 37.5813 96.1852 38.2 95.2465 38.648C94.3078 39.096 93.2625 39.32 92.1105 39.32C90.4465 39.32 89.1452 38.9467 88.2065 38.2C87.2678 37.432 86.7985 36.3653 86.7985 35C86.7985 32.632 88.2492 31.16 91.1505 30.584L96.4305 29.496V28.952ZM93.0065 34.168C93.0065 34.5733 93.1345 34.8933 93.3905 35.128C93.6678 35.3413 94.0305 35.448 94.4785 35.448C94.9905 35.448 95.4385 35.2773 95.8225 34.936C96.2278 34.5947 96.4305 34.0827 96.4305 33.4V32.216L94.5425 32.632C93.5185 32.8667 93.0065 33.3787 93.0065 34.168ZM117.821 23V27.448H113.469V32.856C113.469 33.6027 113.629 34.136 113.949 34.456C114.29 34.776 114.792 34.936 115.453 34.936C115.922 34.936 116.328 34.8933 116.669 34.808C117.01 34.7013 117.33 34.5627 117.629 34.392L118.045 38.168C117.512 38.5307 116.808 38.808 115.933 39C115.08 39.2133 114.237 39.32 113.405 39.32C111.357 39.32 109.778 38.9147 108.669 38.104C107.56 37.272 107.005 35.864 107.005 33.88V27.448H104.381V23H107.005V19.512L113.469 17.72V23H117.821ZM127.849 22.68C129.641 22.68 131.113 22.936 132.265 23.448C133.438 23.96 134.323 24.6107 134.921 25.4C135.518 26.1893 135.859 27.0213 135.944 27.896L129.961 29.72C129.897 28.8453 129.715 28.1947 129.417 27.768C129.139 27.3413 128.691 27.128 128.073 27.128C127.262 27.128 126.654 27.4267 126.249 28.024C125.865 28.6213 125.673 29.6347 125.673 31.064C125.673 32.5573 125.897 33.5707 126.345 34.104C126.793 34.616 127.379 34.872 128.105 34.872C129.278 34.872 129.95 34.0933 130.121 32.536L135.913 34.36C135.827 35.2773 135.454 36.1093 134.793 36.856C134.153 37.6027 133.267 38.2 132.137 38.648C131.006 39.096 129.673 39.32 128.137 39.32C125.363 39.32 123.177 38.5947 121.577 37.144C119.977 35.6933 119.177 33.6453 119.177 31C119.177 29.2293 119.539 27.7253 120.265 26.488C120.99 25.2507 122.003 24.312 123.305 23.672C124.606 23.0107 126.121 22.68 127.849 22.68ZM138.099 39V16.408H144.563V26.104C145.502 23.8213 147.177 22.68 149.587 22.68C151.209 22.68 152.489 23.16 153.427 24.12C154.366 25.0587 154.835 26.4133 154.835 28.184V39H148.371V29.912C148.371 28.9947 148.222 28.3653 147.923 28.024C147.646 27.6827 147.251 27.512 146.739 27.512C146.099 27.512 145.577 27.7573 145.171 28.248C144.766 28.7387 144.563 29.5173 144.563 30.584V39H138.099Z" fill="black"/>
</svg>
