<svg width="350" height="430" viewBox="270 130 246 460" fill="none" xmlns="http://www.w3.org/2000/svg"  >
<path d="M503.044 521.462L447.971 331.837" stroke="#0E0F25" stroke-width="12.6102" stroke-miterlimit="10" stroke-linecap="round"/>
<path d="M490.402 477.917L453.53 546.547H314.545C314.545 546.547 304.523 515.247 278.907 521.461C259.354 526.204 255.5 543.879 255.5 543.879" stroke="#0E0F25" stroke-width="12.6102" stroke-miterlimit="10" stroke-linecap="round"/>
<path d="M535.749 527.734C530.654 522.17 523.33 518.682 515.192 518.682C499.802 518.682 487.326 531.158 487.326 546.548" stroke="#0E0F25" stroke-width="12.6102" stroke-miterlimit="10" stroke-linecap="round"/>
<path d="M516.183 571.746C505.377 571.746 496.617 562.986 496.617 552.18C496.617 541.375 505.377 532.615 516.183 532.615C526.989 532.615 535.749 541.375 535.749 552.18C535.749 562.986 526.989 571.746 516.183 571.746Z" fill="#FF5A3D"/>
<path d="M285.057 571.746C274.251 571.746 265.491 562.986 265.491 552.18C265.491 541.375 274.251 532.615 285.057 532.615C295.863 532.615 304.623 541.375 304.623 552.18C304.623 562.986 295.863 571.746 285.057 571.746Z" fill="#FF5A3D"/>
<path d="M291.675 498.049L301.669 505.843L328.099 484.175L316.769 476.425L291.675 498.049Z" fill="#FFB68F"/>
<path d="M307.108 498.314C307.108 498.314 321.845 520.402 332.365 531.396C335.202 534.36 329.532 540.39 329.532 540.39L283.954 507.107C283.205 506.57 282.965 505.569 283.394 504.754C284.928 501.844 289.451 494.209 293.258 493.118C294.024 492.899 294.708 494.024 295.412 494.966C296.193 496.011 294.404 502.318 304.112 501.48C305.021 501.402 305.972 498.516 307.108 498.314Z" fill="#FF5A3D"/>
<path d="M346.267 533.778L357.223 533.829L355.447 508.957L342.645 508.898L346.267 533.778Z" fill="#FFB68F"/>
<path fill-rule="evenodd" clip-rule="evenodd" d="M328.969 495.303L307.953 473.793L335.546 446.668L373.488 403.737L337.202 320.945C337.202 320.945 364.418 318.287 366.592 320.945C368.767 323.603 368.934 329.037 368.934 329.037L402.815 406.155L368.814 450.709L335.546 487.942L328.969 495.303Z" fill="#E6E7E8"/>
<path opacity="0.29" d="M335.547 446.67V487.944L368.815 450.711L367.601 410.4L335.547 446.67Z" fill="#0E0F25"/>
<path fill-rule="evenodd" clip-rule="evenodd" d="M362.9 511.272L336.968 511.151L341.639 425.683L316.385 366.642C310.975 353.995 310.669 339.744 315.529 326.875C315.529 326.875 316.419 323.739 319.931 321.097C323.443 318.455 356.223 320.127 356.223 320.127L357.52 322.333L359.93 349.13L353.61 364.636L363.594 423.94L362.9 511.272Z" fill="#E6E7E8"/>
<path d="M356.976 522.017C356.976 522.017 381.565 532.041 396.441 535.243C400.451 536.107 399.139 544.278 399.139 544.278L342.737 542.282C341.816 542.257 341.055 541.563 340.954 540.647C340.591 537.378 340.055 528.52 342.595 525.482C343.106 524.871 344.303 525.419 345.415 525.804C346.647 526.231 348.704 532.457 356.271 526.319C356.98 525.744 356.149 522.821 356.976 522.017Z" fill="#0E0F25"/>
<path d="M464.632 325.907L438.545 331.836L412.457 337.765" stroke="#0E0F25" stroke-width="22.6984" stroke-miterlimit="10" stroke-linecap="round"/>
<path d="M365.842 225.553L369.345 229.239L366.677 238.249L362.858 226.536L365.842 225.553Z" fill="#0E0F25"/>
<path d="M443.704 318.518C443.158 318.616 443.248 318.942 443.265 319.267C443.369 321.248 438.642 323.266 441.075 325.459C443.508 327.652 447.73 324.768 450.832 326.388C453.934 328.009 453.356 332.924 451.664 336.327C451.431 336.794 451.841 337.612 452.396 337.635C454.947 337.745 455.691 334.912 455.89 332.754C455.891 333.726 455.536 334.871 455.543 335.819C455.55 336.767 456.498 337.675 457.56 336.819C458.922 335.721 459.269 333.286 459.134 331.549C459.403 331.632 460.079 334.58 461.135 333.079C463.465 329.769 462.829 323.045 458.738 318.752C458.367 318.363 446.171 316.471 443.704 318.518Z" fill="#FFB68F"/>
<path d="M413.07 326.626C412.524 326.724 412.613 327.05 412.63 327.375C412.735 329.356 412.629 334.631 412.629 334.631C412.629 334.631 417.096 332.876 420.197 334.496C423.299 336.117 422.722 341.032 421.029 344.435C420.797 344.902 421.207 345.72 421.761 345.744C424.313 345.853 425.057 343.02 425.255 340.862C425.257 341.834 424.901 342.979 424.908 343.927C424.916 344.875 425.863 345.784 426.926 344.927C428.288 343.829 428.635 341.395 428.5 339.657C428.768 339.74 429.444 342.688 430.501 341.187C432.83 337.877 432.195 331.153 428.104 326.86C427.732 326.471 415.537 324.579 413.07 326.626Z" fill="#FFB68F"/>
<path d="M454.135 319.404C454.135 319.404 447.244 316.49 442.499 314.012C427.977 306.429 412.62 283.851 412.62 283.851L369.35 235.456L365.026 264.107L399.375 292.143L441.373 325.691L454.135 319.404Z" fill="#FFB68F"/>
<path d="M353.7 225.553C353.7 225.553 348.802 221.716 338.182 228.338C308.112 247.089 315.8 315.071 315.8 315.071C315.8 315.071 319.424 323.156 321.706 323.832C323.989 324.508 356.934 327.107 363.273 325.09C369.612 323.073 370.4 322.102 371.197 308.089L375.84 253.298C376.389 243.656 371.902 234.361 363.894 228.964C361.671 227.466 359.618 226.511 358.091 226.628C357.675 226.66 353.7 225.553 353.7 225.553Z" fill="#0E0F25"/>
<path d="M416.5 325.69C416.5 325.69 421.933 324.292 423.104 324.923C424.275 325.554 426.258 327.771 426.258 327.771L418.599 327.609L416.5 325.69Z" fill="#FFB68F"/>
<path d="M325.852 249.262C327.455 240.433 343.801 237.73 349.012 247.1C349.645 248.238 350.259 249.503 350.849 250.842L350.849 250.841L350.853 250.852C352.208 253.93 353.436 257.413 354.482 260.735L369.169 300.741L409.878 325.212L422.7 325.841C422.7 325.841 418.754 335.833 413.716 335.917C408.678 336.001 355.797 310.291 355.797 310.291L337.732 280.764C337.732 280.764 337.712 280.732 337.681 280.68C337.681 280.68 324.751 255.329 325.852 249.262Z" fill="#FFB68F"/>
<path d="M294.185 306.775C295.307 311.144 298.476 314.708 302.696 316.303C307.213 318.004 312.937 319.388 316.452 317.341C316.671 317.214 316.875 317.072 317.066 316.91C322.733 312.323 319.416 294.615 319.416 294.615C319.416 294.615 319.896 260.004 320.376 255.12C320.856 250.229 315.887 247.06 313.728 243.82C313.283 243.15 312.33 242.599 311.025 242.211C305.985 240.701 295.667 241.611 288.588 247.667C281.502 253.729 290.282 291.495 294.185 306.775Z" fill="#F2A600"/>
<path d="M337.491 287.146C337.491 287.146 330.077 303.75 318.213 305.507C316.425 305.772 318.213 299.966 318.213 299.966C318.213 299.966 322.218 297.398 325.056 293.749C327.894 290.1 333.351 280.404 333.351 280.404L337.491 287.146Z" fill="#F2A600"/>
<path d="M352.959 178.526C352.946 175.903 351.767 172.768 350.127 170.854C346.876 167.059 342 164.084 337.405 164.819C332.809 165.553 332.785 165.104 328.513 168.388C319.608 175.233 310.784 186.356 308.097 198.486C306.584 205.318 305.578 215.126 304.018 221.229C302.963 225.356 300.805 231.158 299.125 232.114C294.702 234.629 294.019 232.178 290.524 231.488C293.999 235.918 294.841 237.883 301.808 240.392C302.691 240.71 313.465 241.89 317.146 239.546C320.373 237.492 323.366 230.219 324.396 227.697C330.583 212.552 326.606 197.426 337.837 185.407C340.558 182.494 348.759 179.687 352.959 178.526Z" fill="#121430"/>
<path d="M309.85 292.143C309.85 292.143 308.033 295.203 301.832 294.933C295.63 294.662 291.831 292.143 291.831 292.143" fill="#0E0F25"/>
<path opacity="0.35" d="M308.046 279.962L317.066 316.909C322.733 312.322 319.416 294.614 319.416 294.614C319.416 294.614 319.896 260.003 320.376 255.119C320.856 250.228 315.887 247.059 313.728 243.819C313.283 243.149 312.33 242.599 311.025 242.21C311.025 242.21 301.744 243.022 300.297 246.805C298.857 250.588 308.046 279.962 308.046 279.962Z" fill="#231F20"/>
<path d="M301.475 241.94C301.475 241.94 291.856 244.91 290.414 248.694C288.973 252.478 298.163 281.85 298.163 281.85" stroke="#0E0F25" stroke-width="1.14976" stroke-miterlimit="10"/>
<path d="M300.452 243.023C301.211 242.577 301.022 241.428 300.159 241.256C297.011 240.63 291.653 239.829 289.668 241.131C289.385 241.317 289.122 241.515 288.876 241.721C286.985 243.307 287.918 246.386 290.374 246.641L291.512 246.759C291.719 246.78 291.927 246.734 292.105 246.627L293.903 245.546C293.903 245.546 288.587 244.859 289.758 243.598C290.93 242.337 291.65 241.576 293.452 241.939C294.963 242.244 298.644 242.926 299.794 243.139C300.021 243.181 300.253 243.139 300.452 243.023Z" fill="#0E0F25"/>
<path d="M353.871 252.597C353.871 252.597 354.673 229.554 344.401 226.176C334.13 222.797 319.942 233.654 315.617 247.079L319.311 252.755C319.311 252.755 323.283 236.244 335.514 231.429C342.493 228.681 342.884 231.491 346.611 235.186C350.707 239.247 350.928 245.273 350.928 245.273L353.871 252.597Z" fill="#F2A600"/>
<path d="M357.013 173.029C356.419 176.072 350.757 179.509 346.896 180.194C343.035 180.879 341.793 184.245 341.107 180.384C340.422 176.523 346.696 170.859 350.557 170.174C354.418 169.489 357.766 169.181 357.013 173.029Z" fill="#FF5454"/>
<path d="M386.221 189.987C386.221 189.987 392.239 182.961 390.468 177.67C388.698 172.378 379.725 157.159 361.026 165.396C361.026 165.396 353.576 163.84 346.891 173.236C340.691 181.952 334.427 206.06 354.963 210.543L386.221 189.987Z" fill="#121430"/>
<path d="M368.37 218.342L365.564 228.591L362.335 231.428L359.58 222.234L360.56 213.197L368.37 218.342Z" fill="#121430"/>
<path d="M361.259 216.231C361.259 216.231 374.238 220.433 379.502 218.961C386.688 216.952 387.451 187.507 385.283 185.929C383.114 184.351 370.346 174.736 361.094 185.402C351.841 196.068 353.82 197.483 353.82 197.483C353.82 197.483 346.425 196.471 345.54 200.885C344.655 205.299 349.718 208.609 352.433 207.898C352.433 207.898 353.549 219.541 349.878 224.812C352.076 228.271 363.975 242.211 363.975 242.211L366.947 223.54L361.259 216.231Z" fill="#FFB68F"/>
<path d="M380.267 192.512C381.464 197.23 384.915 202.27 384.426 202.944C383.584 204.105 380.803 204.493 380.554 204.427" stroke="#121430" stroke-width="1.2552" stroke-miterlimit="10" stroke-linecap="round"/>
<path d="M368.879 196.581C372.475 192.79 374.839 193.686 374.839 193.686" stroke="#121430" stroke-width="1.98286" stroke-miterlimit="10" stroke-linecap="round"/>
<path d="M389.667 191.439C386.451 191.023 385.222 191.603 385.222 191.603" stroke="#121430" stroke-width="1.98286" stroke-miterlimit="10" stroke-linecap="round"/>
<path d="M374.604 198.342C374.725 198.892 374.375 199.438 373.82 199.559C373.65 199.596 373.488 199.59 373.329 199.542C372.976 199.447 372.687 199.16 372.604 198.781C372.508 198.344 372.705 197.915 373.061 197.695C373.154 197.633 373.262 197.585 373.381 197.559C373.937 197.437 374.482 197.787 374.604 198.342Z" fill="#121430"/>
<path d="M387.577 195.454C387.697 196.003 387.347 196.549 386.798 196.67C386.243 196.791 385.697 196.442 385.576 195.892C385.455 195.337 385.804 194.791 386.36 194.669C386.909 194.549 387.455 194.899 387.577 195.454Z" fill="#121430"/>
<path d="M379.504 212.469C378.527 212.599 376.723 208.799 376.63 208.678L382.037 208.346C381.433 210.67 380.219 212.373 379.504 212.469Z" fill="white"/>
<path d="M351.846 197.172C351.846 197.172 356.878 199.313 358.987 197.722C361.096 196.131 363.164 183.546 369.115 185.44C375.066 187.334 387.993 187.391 392.954 183.378C397.914 179.365 385.914 170.335 385.914 170.335C385.914 170.335 369.673 168.647 366.972 168.758C365.094 168.835 355.354 173.005 349.601 175.537C347.222 176.583 346.123 179.34 347.122 181.74L351.846 197.172Z" fill="#121430"/>
<path d="M347.722 225.553L349.433 217.797C349.433 217.797 361.927 224.644 362.483 228.789C363.038 232.933 365.021 242.212 365.021 242.212L362.483 245.637L347.722 225.553Z" fill="#0E0F25"/>
</svg>
