<svg width="466" height="700" viewBox="0 0 466 700" fill="none" xmlns="http://www.w3.org/2000/svg">
<path d="M290.62 686.935H301.703L303.575 668.607H290.62V686.935Z" fill="#E8AC7B"/>
<path d="M302.092 681.568C302.076 680.613 303.024 679.947 303.917 680.3C309.071 682.32 326.576 689.033 337.847 691.406C338.748 691.594 339.351 692.197 339.75 692.988C341.246 695.965 338.81 699.442 335.482 699.34L289.771 697.93C288.949 697.915 288.26 697.296 288.166 696.474C287.829 693.544 287.312 685.61 289.576 682.884C290.03 682.336 291.103 682.822 292.106 683.158C293.21 683.534 295.082 689.103 301.833 683.574C302.162 683.292 302.108 682.422 302.092 681.568Z" fill="#87B0C8"/>
<path d="M289.992 676.628H303.574L313.568 577.993C313.568 577.993 316.041 451.238 311.835 446.301C307.629 441.364 281.22 475.764 281.22 475.764L288.817 577.993L289.992 676.628Z" fill="#CCCCCC"/>
<path d="M253.195 446.416C253.195 446.416 250.225 446.126 247.876 456.81C243.082 478.631 263.501 517.778 263.501 517.778C263.501 517.778 281.398 516.814 296.061 507.987L312.023 446.416C309.049 443.23 253.195 446.416 253.195 446.416Z" fill="#CCCCCC"/>
<path d="M267.276 686.935H278.367L278.986 668.607H266.031L267.276 686.935Z" fill="#E8AC7B"/>
<path d="M277.765 681.639C277.75 680.637 278.76 679.932 279.692 680.3C284.963 682.383 302.297 689.072 313.489 691.461C314.39 691.657 314.985 692.252 315.385 693.051C316.873 696.028 314.421 699.505 311.092 699.388L265.39 697.845C264.568 697.821 263.878 697.202 263.792 696.38C263.463 693.451 262.97 685.516 265.241 682.791C265.696 682.242 266.769 682.736 267.763 683.073C268.868 683.456 270.716 689.025 277.491 683.519C277.82 683.268 277.781 682.462 277.765 681.639Z" fill="#242424"/>
<path d="M266.032 676.628H280.945L292.255 577.727L297.965 496.826L257.267 475.764L265.946 578.189L266.032 676.628Z" fill="#CCCCCC"/>
<path d="M397.156 442.683C397.156 442.683 392.791 451.975 387.295 451.975C381.799 451.975 377.808 443.821 377.808 443.821L387.295 436.236L397.156 442.683Z" fill="#D69D58"/>
<path d="M271.871 431.414H300.953C306.135 431.414 310.343 427.213 310.343 422.024V388.502C310.343 383.32 304.825 370.591 299.643 370.591L259.015 379.112C253.833 379.112 248.988 389.879 248.988 395.061L249.625 409.168C249.632 421.455 259.591 431.414 271.871 431.414Z" fill="#D3D3D3"/>
<path d="M287.408 282.79L289.295 285.246C289.295 285.246 289.325 285.567 289.332 286.152C290.583 286.803 291.803 287.402 293.001 287.949C293.001 287.949 293.024 287.956 293.061 287.971C293.877 288.278 302.6 291.55 310.448 294.276C311.054 281.854 310.493 261.614 310.006 248.675L308.478 250.061C308.546 253.43 308.209 257.436 307.213 261.779C307.183 261.921 307.146 262.063 307.108 262.206C306.681 264.018 306.195 265.815 305.663 267.537C303.671 273.984 301.065 279.405 298.789 280.588C297.352 281.329 295.861 281.577 294.424 281.524C293.166 281.479 291.593 280.992 290.006 280.319L288.613 282.37L287.408 282.79Z" fill="black"/>
<path d="M270.546 265.202C270.546 265.202 270.546 265.209 270.546 265.217L274.117 276.179L277.097 285.314L277.292 285.928L281.628 299.234C281.628 299.234 282.189 299.421 283.155 299.72C284.271 300.072 285.925 300.589 287.872 301.165C293.106 302.708 300.429 304.707 304.989 305.216C306.539 305.396 307.767 305.396 308.494 305.156C309.137 304.939 309.609 303.284 309.946 300.611C310.171 298.882 310.336 296.733 310.455 294.277C302.608 291.551 293.885 288.279 293.069 287.972C293.031 287.957 293.009 287.95 293.009 287.95C291.811 287.403 290.59 286.804 289.34 286.152C289.332 285.568 289.302 285.246 289.302 285.246L287.416 282.79L288.621 282.371L290.014 280.319C291.601 280.993 293.174 281.48 294.432 281.525C295.869 281.577 297.359 281.33 298.797 280.589C301.073 279.406 303.679 273.985 305.671 267.538C306.202 265.816 306.689 264.019 307.116 262.207C307.153 262.064 307.191 261.922 307.221 261.78C308.216 257.437 308.553 253.431 308.486 250.062L310.014 248.676C309.999 248.377 309.991 248.085 309.984 247.8C309.722 241.024 309.497 236.456 309.497 236.456L288.224 233.723L286.038 237.617L277.951 252.023L270.546 265.202Z" fill="black"/>
<path d="M244.473 325.987C245.896 330.345 247.446 334.89 248.569 339.36C248.928 340.79 249.25 342.213 249.505 343.62C251.579 354.994 252.478 371.684 252.807 379.891C252.874 381.531 252.919 382.826 252.949 383.68V383.687C252.972 384.421 252.979 384.818 252.979 384.818C273.166 389.348 297.509 390.92 309.317 383.238C309.384 383.193 309.444 383.156 309.512 383.111C310.283 382.602 310.912 378.453 311.451 372.553C312.132 365.043 312.656 354.695 313.121 345.395C313.398 339.787 313.652 334.56 313.899 330.577C314.109 327.245 314.319 324.774 314.536 323.681C315.734 317.63 315.068 311.565 312.881 306.159C312.095 304.212 311.114 302.355 309.946 300.611C306.659 295.669 301.919 291.663 296.109 289.297C295.113 288.893 294.102 288.451 293.069 287.972C293.031 287.957 293.009 287.949 293.009 287.949C291.811 287.402 290.59 286.803 289.34 286.152C288.875 285.912 288.411 285.665 287.947 285.411L277.329 285.313H277.097L273.915 285.283H273.585C272.986 285.321 264.668 288.451 256.603 292.689C253.219 294.471 249.887 296.448 247.184 298.469C247.184 298.469 247.184 298.469 247.176 298.477C245.484 299.742 244.039 301.03 242.991 302.303C242.242 303.209 241.71 304.227 241.358 305.351C239.696 310.57 241.867 317.975 244.473 325.987Z" fill="#FBDC8D"/>
<path d="M257.51 255.123V255.25C257.577 265.665 259.471 273.745 272.178 275.909C272.792 276.014 273.436 276.103 274.11 276.178C275.248 276.313 276.461 276.403 277.756 276.44C277.786 276.448 277.816 276.448 277.854 276.448C278.318 276.463 278.797 276.47 279.284 276.478L280.759 275.145L298.7 258.904L301.358 256.5L303.132 254.898L305.835 252.442C305.835 252.442 305.835 252.442 305.843 252.442L308.479 250.061L310.006 248.676L310.74 248.009C310.74 248.009 310.74 248.002 310.755 247.979C310.927 247.321 314.267 234.921 307.992 228.092C306.637 226.617 303.282 225.037 299.044 223.742C288.98 220.664 273.923 219.204 268.719 224.678C262.459 226.003 257.712 231.694 257.712 242.506C257.712 246.916 257.48 251.184 257.51 255.123C257.517 255.123 257.517 255.123 257.51 255.123Z" fill="black"/>
<path d="M277.756 274.539V283.397L284.772 283.696L287.408 282.79L288.614 282.371L290.014 280.319L291.983 277.399L280.759 275.145L277.951 274.576L277.756 274.539Z" fill="black"/>
<path d="M271.908 273.708C271.908 273.708 272.006 274.607 272.178 275.909C272.507 278.35 273.099 282.207 273.833 284.183C273.945 284.483 273.938 284.827 273.908 285.284C273.803 286.482 273.466 288.436 274.454 292.248C274.784 293.506 275.315 294.711 275.982 295.782C277.457 298.17 279.591 299.855 281.568 299.863C282.122 299.863 282.653 299.818 283.148 299.72C285.791 299.189 287.655 297.19 288.546 293.176C289.272 289.911 289.355 287.418 289.332 286.153C289.325 285.569 289.295 285.247 289.295 285.247L287.408 282.791L282.189 275.992C282.189 275.992 286.158 278.687 290.006 280.32C291.594 280.994 293.166 281.48 294.424 281.525C295.862 281.578 297.352 281.331 298.789 280.589C301.066 279.406 303.671 273.985 305.663 267.538C306.195 265.816 306.681 264.019 307.108 262.207C307.146 262.065 307.183 261.922 307.213 261.78C308.209 257.437 308.546 253.431 308.479 250.062C308.456 249.133 308.411 248.25 308.336 247.419C307.947 243.046 306.861 240.185 305.895 239.751C303.889 238.845 294.372 234.981 286.03 237.617C282.376 238.77 278.954 241.174 276.483 245.607C268.367 260.178 270.995 261.331 270.995 261.331C270.995 261.331 270.74 263.045 270.538 265.202C270.538 265.202 270.538 265.209 270.538 265.217C270.171 269.193 269.992 274.666 271.908 273.708Z" fill="#D69D58"/>
<path d="M297.809 254.891C298.625 259.301 300.077 263.292 299.523 263.794C298.265 264.925 294.956 264.685 294.686 264.543" stroke="black" stroke-width="1.42572" stroke-miterlimit="10" stroke-linecap="round"/>
<path d="M285.476 253.956C287.708 252.571 291.167 252.548 291.167 252.548" stroke="black" stroke-width="2.25229" stroke-miterlimit="10" stroke-linecap="round"/>
<path d="M306.434 252.57C302.698 251.716 301.185 252.255 301.185 252.255" stroke="black" stroke-width="2.25229" stroke-miterlimit="10" stroke-linecap="round"/>
<path d="M303.641 258.29C303.357 258.485 302.84 258.545 302.518 258.425C300.294 257.579 301.193 255.976 302.78 255.789C304.353 255.602 305.618 256.942 303.641 258.29Z" fill="black"/>
<path d="M290.186 259.279C289.857 259.511 289.303 259.579 288.928 259.429C286.794 258.576 287.693 257.011 289.265 256.823C290.815 256.636 292.066 257.954 290.186 259.279Z" fill="black"/>
<path d="M296.333 274.794C294.971 274.913 292.365 270.346 292.23 270.196L299.778 269.994C298.992 272.734 297.329 274.711 296.333 274.794Z" fill="white"/>
<path d="M322.129 305.912C322.293 306.024 322.451 306.144 322.6 306.271L356.692 364.833L387.497 440.205C387.916 444.502 384.771 448.336 380.473 448.756C376.175 449.175 372.341 446.03 371.922 441.732L341.762 372.867L309.175 323.418C305.82 320.693 308.868 310.771 311.593 307.417C314.192 304.212 318.797 303.598 322.129 305.912Z" fill="#D69D58"/>
<path d="M304.989 305.216L304.008 331.7L313.121 345.395L317.261 351.618L324.682 346.945L340.488 336.979L341.522 336.328C341.522 336.328 323.551 298.312 321.275 297.743C318.954 297.167 314.843 295.804 310.455 294.277C302.608 291.551 293.885 288.279 293.069 287.972C293.031 287.957 293.009 287.949 293.009 287.949L305.056 303.307L304.989 305.216Z" fill="#FBDC8D"/>
<path d="M256.581 293.73C256.761 295.587 277.487 299.346 277.067 293.917C276.648 288.503 279.276 267.193 277.943 252.016C281.987 252.427 300.212 249.283 300.212 249.283L304.622 240.32L308.336 247.411L314.012 248.728C314.012 248.728 314.708 239.159 314.012 234.771C312.829 227.298 303.784 223.345 296.228 223.652C290.321 223.884 284.241 224.214 282.75 224.588C280.594 225.135 270.343 232.308 264.308 236.628C261.807 238.418 261.044 248.549 257.509 255.123L256.581 293.73Z" fill="black"/>
<path d="M179.525 469.946L448.799 436.236C459.356 434.911 466.837 425.289 465.519 414.731L460.337 373.317C459.02 362.766 449.39 355.279 438.84 356.604L169.559 390.314C159.008 391.632 151.521 401.261 152.846 411.811L158.027 453.226C159.345 463.784 168.967 471.264 179.525 469.946Z" fill="#0075F2"/>
<path d="M390.102 422.504L415.995 419.262C422.876 418.401 427.758 412.119 426.897 405.237L425.242 392.051C424.381 385.17 418.099 380.288 411.218 381.149L385.325 384.392C378.444 385.253 373.562 391.535 374.423 398.416L376.078 411.602C376.939 418.483 383.221 423.365 390.102 422.504Z" fill="white"/>
<path d="M346.134 399.187L191.116 418.595" stroke="white" stroke-width="7.35532" stroke-miterlimit="10" stroke-linecap="round"/>
<path d="M348.358 416.979L193.34 436.38" stroke="white" stroke-width="7.35532" stroke-miterlimit="10" stroke-linecap="round"/>
<path d="M189.7 340.992L235.945 306.099C239.748 304.047 244.496 305.462 246.547 309.266C248.599 313.07 251.354 322.01 247.551 324.062L206.301 349.812L207.746 400.22C208.173 404.518 205.155 405.985 200.857 406.412C196.559 406.839 196.312 402.503 195.885 398.205L189.7 340.992Z" fill="#D69D58"/>
<path d="M192.478 409.992C192.59 410.284 193.714 430.284 198.176 431.819C200.176 431.841 199.195 423.942 199.195 423.942C199.195 423.942 200.58 434.245 203.058 433.758C205.537 433.272 203.844 423.193 203.844 423.193C203.844 423.193 205.919 433.564 208.202 433.152C210.486 432.74 208.539 415.054 208.539 415.054C208.539 415.054 213.661 418.97 214.792 418.154C217.914 415.908 211.811 408.09 210.471 405.267C210.052 404.384 206.712 396.851 204.279 397.45C201.688 398.087 199.314 396.499 196.724 397.533C193.953 398.633 192.478 409.992 192.478 409.992Z" fill="#D69D58"/>
<path d="M376.872 455.585C381.536 456.431 387.938 454.566 389.106 451.384C389.616 449.984 390.132 448.778 390.469 448.471C392.948 446.255 387.654 442.361 386.329 440.01C384.359 436.521 383.873 433.99 381.447 432.762C375.853 429.917 370.177 438.842 368.216 443.717C367.714 444.997 372.559 454.806 376.872 455.585Z" fill="#D69D58"/>
<path d="M258.101 303.433C258.101 303.433 252.74 296.11 248.142 298.027C241.314 300.872 216.267 319.367 216.267 319.367L237.42 343.44L258.101 335.87V303.433Z" fill="#FBDC8D"/>
<path d="M293.001 290.69C293.001 290.69 290.081 302.169 284.652 303.052C275.6 304.52 270.545 295.894 270.545 295.894" stroke="#0E0F25" stroke-width="1.54688" stroke-miterlimit="10" stroke-linecap="round"/>
<path d="M286.563 267.538C284.975 267.538 283.688 266.251 283.688 264.663C283.688 263.075 284.975 261.788 286.563 261.788C288.151 261.788 289.438 263.075 289.438 264.663C289.438 266.251 288.151 267.538 286.563 267.538Z" fill="#D38A59"/>
<path d="M302.736 264.662C302.736 266.249 304.032 267.537 305.619 267.537H305.671C306.203 265.815 306.69 264.018 307.116 262.206C306.682 261.936 306.173 261.779 305.619 261.779C304.032 261.779 302.736 263.074 302.736 264.662Z" fill="#D38A59"/>
</svg>
