<svg width="400" height="643" viewBox="0 0 400 643" fill="none" xmlns="http://www.w3.org/2000/svg">
<g filter="url(#filter0_d)">
<path d="M293.214 431.287H170.353V562.64H293.214V431.287Z" fill="#E9E5E5"/>
<path d="M293.214 434.674V451.812C248.986 453.982 170.819 450.767 170.819 450.767C170.658 450.767 170.497 450.767 170.353 450.751V434.674H293.214Z" fill="black" fill-opacity="0.44"/>
<path d="M123.749 547.801H105.714L102.677 517.988H123.749V547.801Z" fill="#EEB489"/>
<path d="M178.241 381.168L296.29 385.714C309.231 385.714 318.441 403.512 316.842 418.035C315.687 428.522 305.474 436.779 303.221 437.876C272.39 452.892 170.82 441.216 170.82 441.216C156.203 441.216 144.382 429.314 144.482 414.697V414.697C144.609 396.143 159.686 381.168 178.241 381.168Z" fill="#5AA2E4"/>
<path d="M131.275 391.836H95.1533V531.033H131.275V391.836Z" fill="#696969"/>
<path d="M95.1509 400.296V378.803C95.1509 370.723 101.701 364.174 109.78 364.174H220.461V379.156C220.461 390.831 210.997 400.296 199.322 400.296H95.1509Z" fill="#696969"/>
<path d="M132.608 531.033H90.1237L90.4691 510.407L132.608 518.565V531.033Z" fill="#5AA2E4"/>
<path d="M100.893 382.103C104.064 378.419 108.1 377.588 109.924 379.025C111.654 380.389 111.525 383.902 110.129 386.003C107.714 389.637 100.703 390.259 96.583 386.824C92.8386 383.702 92.4167 378.009 94.3254 374.304C97.3379 368.457 106.002 367.859 111.565 369.789C117.319 371.784 123.41 377.748 122.443 384.361C121.177 393.027 108.896 395.24 107.666 395.444C106.688 395.607 96.6304 397.098 89.3996 389.492C83.5452 383.334 83.7903 375.679 83.8582 374.304" stroke="#5AA2E4" stroke-width="1.60771" stroke-miterlimit="10" stroke-linecap="round"/>
<path d="M105.031 536.048C105.031 536.048 69.1335 550.492 47.4348 555.06C41.5854 556.292 43.4435 568.208 43.4435 568.208L125.646 565.673C126.988 565.643 128.101 564.636 128.255 563.303C128.805 558.541 129.645 545.636 125.963 541.193C125.223 540.299 123.475 541.09 121.853 541.644C120.054 542.258 117.016 551.316 106.029 542.322C105 541.479 106.23 537.225 105.031 536.048Z" fill="#5AA2E4"/>
<path d="M207.102 391.836H170.979V531.033H207.102V391.836Z" fill="#454545"/>
<path d="M170.979 400.296V378.803C170.979 370.723 177.529 364.174 185.609 364.174L208.14 362.719L290.075 362.719C290.075 362.719 291.546 368.204 291.546 379.672C291.546 391.347 286.825 400.296 275.15 400.296H170.979Z" fill="#454545"/>
<path d="M199.403 547.801H181.368L180.353 517.988H201.425L199.403 547.801Z" fill="#EEB489"/>
<path d="M210.282 531.034H167.798L168.143 510.407L210.282 518.565V531.034Z" fill="#5AA2E4"/>
<path d="M184.409 382.103C181.238 378.419 177.201 377.588 175.378 379.025C173.648 380.389 173.777 383.902 175.173 386.003C177.587 389.637 184.599 390.259 188.719 386.824C192.463 383.702 192.885 378.009 190.976 374.304C187.964 368.457 179.3 367.859 173.736 369.789C167.983 371.784 161.892 377.748 162.859 384.361C164.125 393.027 176.406 395.24 177.636 395.444C178.614 395.607 188.671 397.098 195.902 389.492C201.757 383.334 201.512 375.679 201.444 374.304" stroke="#5AA2E4" stroke-width="1.60771" stroke-miterlimit="10" stroke-linecap="round"/>
<path d="M181.765 535.993C181.765 535.993 145.91 550.542 124.225 555.174C118.379 556.422 120.272 568.333 120.272 568.333L202.466 565.556C203.809 565.522 204.919 564.513 205.069 563.178C205.604 558.415 206.407 545.508 202.712 541.075C201.969 540.184 200.223 540.98 198.603 541.538C196.806 542.158 193.795 551.225 182.782 542.263C181.75 541.423 182.967 537.166 181.765 535.993Z" fill="#454545"/>
<path d="M273.48 121.544C273.48 121.544 277.183 133.667 274.374 137.18C271.566 140.693 269.685 143.692 269.685 143.692V120.778L273.48 121.544Z" fill="#F2A600"/>
<path d="M297.432 383.984L299.021 318.448L289.108 269.903L311.31 263.772L316.894 311.004L309.718 385.673L297.432 383.984Z" fill="#EEB489"/>
<path d="M179.058 383.984L177.469 318.448L187.382 269.903L165.18 263.772L159.596 311.004L166.772 385.673L179.058 383.984Z" fill="#EEB489"/>
<path d="M283.064 279.357C260.784 247.835 263.653 242.187 263.093 241.647C267.324 245.733 263.093 192.584 263.093 192.584C265.465 193.305 268.173 194.323 270.998 195.524C281.163 199.848 292.843 206.554 295.83 210.428C301.516 217.804 316.537 253.154 321.133 270.26L283.064 279.357Z" fill="#0E0F25"/>
<path d="M193.426 279.357C215.706 247.835 212.837 242.187 213.397 241.647C209.165 245.733 213.397 192.584 213.397 192.584C211.025 193.305 208.317 194.323 205.491 195.524C195.327 199.848 183.647 206.554 180.66 210.428C174.974 217.804 159.953 253.154 155.357 270.26L193.426 279.357Z" fill="#0E0F25"/>
<path d="M224.198 188.469C217.108 190.268 197.276 199.928 197.276 199.928L188.659 226.449L191.915 367.762H291.483L286.12 227.856C286.12 227.856 284.525 211.38 281.59 208.145C270.302 195.707 264.266 191.306 253.113 189.043C241.96 186.781 231.206 186.69 224.198 188.469Z" fill="#0E0F25"/>
<path d="M234.85 200.486C237.472 201.061 240.214 200.83 242.756 199.965C245.6 198.997 249.077 197.149 249.077 193.899V173.049H229.16V193.899C229.16 197.871 231.486 199.749 234.85 200.486Z" fill="#EEB489"/>
<path d="M257.384 194.484C257.384 194.484 254.973 207.521 237.872 205.832C220.771 204.143 220.86 192.584 220.86 192.584" stroke="#427BFF" stroke-width="4" stroke-miterlimit="10" stroke-linecap="round"/>
<path d="M249.077 177.535L230.907 177.721C230.907 177.721 246.225 189.76 249.077 187.808V177.535Z" fill="#231F20"/>
<path d="M240.474 179.614H251.004C256.806 179.744 263.71 175.485 269.49 164.003C270.599 161.802 271.236 159.385 271.371 156.924L272.871 129.636C272.871 117.559 263.081 107.768 251.004 107.768H236.747C224.67 107.768 214.879 117.559 214.879 129.636V154.019C214.879 168.154 226.339 179.614 240.474 179.614Z" fill="#EEB489"/>
<path d="M287.314 105.218C287.796 100.766 288.564 93.8712 283.932 90.7201C279.548 87.7385 272.695 89.3146 269.917 92.8948C267.439 96.0888 268.449 100.562 267.742 100.627C266.64 100.729 267.302 89.5685 260.976 84.9209C257.014 82.0098 250.424 81.7368 247.687 84.6793C243.132 89.5747 246.918 96.6107 245.888 97.0202C244.735 97.4785 243.517 85.4306 232.705 82.5046C225.887 80.6591 217.168 85.0329 216.758 89.2703C216.143 95.6083 233.974 103.098 234.155 102.802C234.314 102.542 223.255 92.3709 213.616 94.8279C209.626 95.845 205.987 98.9987 204.676 103.043C202.579 109.51 206.464 116.891 211.442 118.991C214.393 120.237 215.466 118.673 222.736 118.306C228.88 117.996 246.979 126.939 252.544 128.055C259.085 129.367 272.808 127.41 281.051 119.756C286.267 114.912 287.014 108.002 287.314 105.218Z" fill="#F2A600"/>
<path d="M228.284 118.331C228.284 118.331 216.721 136.256 217.417 143.633C217.748 147.153 213.066 132.395 209.549 134.583C207.556 129.182 205.506 116.566 211.734 115.406C219.817 113.901 228.284 118.331 228.284 118.331Z" fill="#F2A600"/>
<path d="M267.197 138.554L257.322 137.594" stroke="#231F20" stroke-width="3.78559" stroke-miterlimit="10" stroke-linecap="round"/>
<path d="M228.284 140.2L237.369 138.554" stroke="#231F20" stroke-width="3.78559" stroke-miterlimit="10" stroke-linecap="round"/>
<path d="M249.923 141.705C252.573 148.373 253.454 153.148 253.789 155.961C253.941 157.242 254.076 158.912 253.064 159.827C251.323 161.403 247.52 159.534 247.144 159.344" stroke="#231F20" stroke-width="1.26186" stroke-miterlimit="10" stroke-linecap="round"/>
<path d="M241.302 165.835C241.231 168.655 244.036 171.916 245.986 172.136C248.449 172.414 252.586 169.288 254.181 166.559L241.302 165.835Z" fill="#F1F2F2"/>
<path d="M260.625 147.182C261.225 147.182 261.712 146.695 261.712 146.094C261.712 145.494 261.225 145.007 260.625 145.007C260.024 145.007 259.538 145.494 259.538 146.094C259.538 146.695 260.024 147.182 260.625 147.182Z" fill="#231F20"/>
<path d="M237.334 147.182C237.934 147.182 238.421 146.695 238.421 146.094C238.421 145.494 237.934 145.007 237.334 145.007C236.733 145.007 236.246 145.494 236.246 146.094C236.246 146.695 236.733 147.182 237.334 147.182Z" fill="#231F20"/>
<path d="M298.437 372.996C298.011 373.035 297.614 373.223 297.317 373.531C295.505 375.406 288.971 382.341 288.561 385.212C288.085 388.547 276.77 397.718 282.368 399.742C284.832 400.634 290.943 391.643 293.563 392.12C296.02 392.566 293.574 408.506 290.748 414.618C290.36 415.457 290.695 416.494 291.52 416.912C295.315 418.833 298.566 408.318 298.566 408.318L296.793 413.793C296.271 415.404 298.081 416.794 299.483 415.844C301.28 414.627 303.278 412.272 304.402 407.722C304.402 407.722 304.507 411.772 306.426 411.533C310.659 411.008 312.678 388.175 312.841 384.027C312.855 383.651 311.076 374.031 310.867 373.718L306.065 373.238C305.701 372.69 305.065 372.387 304.41 372.447L298.437 372.996Z" fill="#EEB489"/>
<path d="M178.053 372.996C178.479 373.035 178.875 373.223 179.173 373.531C180.985 375.406 187.519 382.341 187.929 385.212C188.405 388.547 199.72 397.718 194.122 399.742C191.658 400.634 185.547 391.643 182.926 392.12C180.47 392.566 182.915 408.506 185.742 414.618C186.13 415.457 185.795 416.494 184.97 416.912C181.174 418.833 177.924 408.318 177.924 408.318L179.697 413.793C180.219 415.404 178.409 416.794 177.007 415.844C175.21 414.627 173.212 412.272 172.088 407.722C172.088 407.722 171.983 411.772 170.063 411.533C165.831 411.008 163.812 388.175 163.649 384.027C163.634 383.651 165.414 374.031 165.623 373.718L170.425 373.238C170.789 372.69 171.424 372.387 172.079 372.447L178.053 372.996Z" fill="#EEB489"/>
<ellipse cx="213.274" cy="143.084" rx="7.3323" ry="9.21348" transform="rotate(-15.2666 213.274 143.084)" fill="#EEB489"/>
</g>
<defs>
<filter id="filter0_d" x="-4" y="0" width="408" height="708" filterUnits="userSpaceOnUse" color-interpolation-filters="sRGB">
<feFlood flood-opacity="0" result="BackgroundImageFix"/>
<feColorMatrix in="SourceAlpha" type="matrix" values="0 0 0 0 0 0 0 0 0 0 0 0 0 0 0 0 0 0 127 0"/>
<feOffset dy="4"/>
<feGaussianBlur stdDeviation="2"/>
<feColorMatrix type="matrix" values="0 0 0 0 0 0 0 0 0 0 0 0 0 0 0 0 0 0 0.25 0"/>
<feBlend mode="normal" in2="BackgroundImageFix" result="effect1_dropShadow"/>
<feBlend mode="normal" in="SourceGraphic" in2="effect1_dropShadow" result="shape"/>
</filter>
</defs>
</svg>
